<?xml version="1.0" encoding="iso-8859-1"?>
<!-- Generator: Adobe Illustrator 19.0.0, SVG Export Plug-In . SVG Version: 6.00 Build 0)  -->
<svg version="1.1" id="Capa_1" xmlns="http://www.w3.org/2000/svg" xmlns:xlink="http://www.w3.org/1999/xlink" x="0px" y="0px"
	 viewBox="0 0 511.992 511.992" style="enable-background:new 0 0 511.992 511.992;" xml:space="preserve">
<path style="fill:#AAC1CE;" d="M256.012,0c-0.048,0-0.096,0-0.136,0c-0.016,0-0.016,0-0.04,0c-0.048,0-0.096,0-0.136,0
	c-0.008,0,0,0-0.008,0c-0.048,0-0.088,0-0.136,0c-0.008,0-0.024,0-0.032,0c-0.048,0-0.088,0-0.136,0c-0.008,0-0.024,0-0.032,0
	c-0.04,0-0.08,0-0.12,0c-0.008,0-0.024,0-0.032,0c-0.048,0-0.088,0-0.136,0c-0.016,0-0.016,0-0.032,0c-0.04,0-0.08,0-0.12,0
	c-0.008,0-0.024,0-0.032,0c-0.048,0-0.088,0-0.136,0c-0.008,0-0.024,0-0.032,0c-0.04,0-0.08,0-0.12,0c-0.008,0-0.016,0-0.024,0
	c-0.048,0-0.096,0-0.136,0c-0.008,0-0.024,0-0.032,0c-0.04,0-0.08,0-0.128,0c-0.008,0-0.008,0-0.016,0c-0.048,0-0.088,0-0.136,0
	c-0.008,0-0.032,0-0.04,0c-0.04,0-0.08,0-0.128,0c-0.008,0-0.008,0-0.016,0c-0.048,0-0.088,0-0.136,0c-0.016,0-0.024,0-0.04,0
	c-0.048,0-0.088,0-0.136,0h-0.016c-0.04,0-0.088,0-0.128,0c-0.016,0-0.024,0-0.04,0c-0.048,0-0.088,0-0.136,0
	c-0.008,0-0.016,0-0.024,0c-0.04,0-0.08,0-0.12,0c-0.008,0-0.032,0-0.04,0c-0.048,0-0.088,0-0.136,0c-0.008,0-0.016,0-0.024,0
	c-0.04,0-0.08,0-0.12,0c-0.008,0-0.024,0-0.032,0c-0.048,0-0.096,0-0.136,0h-0.024c-0.04,0-0.08,0-0.12,0c-0.008,0-0.024,0-0.032,0
	c-0.048,0-0.088,0-0.136,0c-0.008,0-0.024,0-0.032,0c-0.04,0-0.072,0-0.112,0c-0.016,0-0.016,0-0.032,0c-0.048,0-0.088,0-0.136,0
	c-0.008,0-0.024,0-0.032,0c-0.04,0-0.08,0-0.12,0c-0.008,0-0.016,0-0.024,0c-0.048,0-0.096,0-0.136,0c-0.008,0-0.024,0-0.032,0
	c-0.04,0-0.088,0-0.128,0c-0.008,0-0.008,0-0.016,0c-0.048,0-0.096,0-0.136,0c-0.016,0-0.016,0-0.032,0c-0.048,0-0.096,0-0.144,0
	h-0.008c-0.048,0-0.088,0-0.136,0c-0.008,0-0.024,0-0.032,0c-0.048,0-0.088,0-0.136,0c-0.008,0-0.024,0-0.032,0
	c-0.04,0-0.072,0-0.112,0c-0.016,0-0.024,0-0.048,0c-0.04,0-0.088,0-0.128,0c-0.016,0-0.016,0-0.032,0c-0.04,0-0.072,0-0.112,0
	c-0.008,0-0.032,0-0.04,0c-0.04,0-0.088,0-0.128,0c-0.016,0-0.016,0-0.04,0c-0.04,0-0.072,0-0.112,0c-0.016,0-0.024,0-0.04,0
	c-0.04,0-0.088,0-0.128,0c-0.008,0-0.032,0-0.04,0c-0.04,0-0.072,0-0.112,0c-0.016,0-0.016,0-0.032,0c-0.04,0-0.088,0-0.136,0
	c-0.008,0-0.032,0-0.04,0c-0.04,0-0.08,0-0.12,0c-0.008,0-0.016,0-0.024,0c-0.048,0-0.096,0-0.136,0c-0.008,0-0.024,0-0.032,0
	c-0.048,0-0.088,0-0.136,0h-0.008c-0.048,0-0.096,0-0.136,0c-0.016,0-0.016,0-0.04,0c-0.048,0-0.088,0-0.136,0h-0.016
	c-0.04,0-0.08,0-0.128,0c-0.016,0-0.024,0-0.04,0c-0.048,0-0.088,0-0.136,0c-0.008,0-0.008,0-0.016,0c-0.04,0-0.08,0-0.12,0
	c-0.008,0-0.032,0-0.04,0c-0.04,0-0.088,0-0.128,0c-0.008,0-0.024,0-0.032,0c-0.04,0-0.072,0-0.112,0c-0.008,0-0.032,0-0.04,0
	c-0.04,0-0.088,0-0.128,0.008c-0.016,0-0.024,0-0.04,0c-0.04,0-0.072,0-0.104,0c-0.008,0-0.032,0-0.04,0
	c-0.04,0-0.088,0-0.136,0.008c-0.008,0-0.032,0-0.04,0c-0.032,0-0.072,0-0.104,0c-0.016,0-0.024,0-0.04,0
	c-0.04,0-0.088,0-0.128,0.008c-0.008,0-0.032,0-0.04,0c-0.032,0-0.072,0-0.104,0c-0.008,0-0.024,0-0.04,0
	c-0.04,0-0.088,0-0.128,0.008c-0.016,0-0.024,0-0.04,0c-0.04,0-0.08,0-0.12,0.008c-0.008,0-0.016,0-0.024,0
	c-0.04,0-0.088,0-0.128,0.008c-0.016,0-0.032,0-0.048,0c-0.04,0-0.08,0-0.12,0.008c-0.008,0-0.032,0-0.04,0
	c-0.04,0-0.072,0-0.112,0.008c-0.016,0-0.032,0-0.048,0c-0.04,0-0.088,0-0.128,0.008c-0.008,0-0.024,0-0.032,0
	c-0.032,0-0.072,0-0.112,0.008c-0.008,0-0.032,0-0.04,0c-0.04,0-0.08,0-0.128,0.008c-0.016,0-0.032,0-0.048,0
	c-0.032,0-0.064,0-0.096,0c-0.008,0-0.04,0-0.048,0c-0.04,0-0.08,0-0.128,0.008c-0.016,0-0.032,0-0.048,0c-0.032,0-0.064,0-0.096,0
	c-0.016,0-0.024,0-0.048,0c-0.04,0-0.08,0-0.128,0.008c-0.008,0-0.04,0-0.048,0c-0.032,0-0.064,0-0.096,0.008
	c-0.016,0-0.024,0-0.04,0c-0.04,0-0.08,0-0.128,0.008c-0.016,0-0.032,0-0.048,0c-0.032,0-0.064,0-0.096,0.008
	c-0.016,0-0.032,0-0.048,0c-0.04,0-0.08,0-0.12,0.008c-0.016,0-0.032,0-0.056,0c-0.04,0-0.072,0-0.112,0.008
	c-0.008,0-0.024,0-0.032,0c-0.04,0-0.08,0-0.12,0.008c-0.016,0-0.032,0-0.056,0c-0.032,0-0.072,0-0.104,0.008
	c-0.016,0-0.04,0-0.056,0c-0.032,0-0.072,0-0.104,0.008c-0.016,0-0.032,0-0.048,0c-0.04,0-0.08,0-0.128,0.008
	c-0.016,0-0.024,0-0.04,0c-0.032,0-0.064,0-0.096,0.008c-0.016,0-0.032,0-0.048,0c-0.04,0-0.088,0-0.128,0.008
	c-0.016,0-0.032,0-0.048,0c-0.032,0-0.064,0-0.088,0.008c-0.024,0-0.024,0-0.056,0c-0.04,0-0.08,0-0.12,0.008
	c-0.016,0-0.024,0-0.04,0c-0.032,0-0.064,0-0.096,0.008c-0.016,0-0.024,0-0.04,0c-0.04,0-0.088,0.008-0.128,0.008
	c-0.008,0-0.032,0-0.04,0c-0.032,0-0.072,0-0.104,0.008c-0.016,0-0.024,0-0.04,0c-0.04,0-0.08,0.008-0.128,0.008
	c-0.016,0-0.032,0-0.048,0c-0.032,0-0.064,0-0.104,0.008c-0.008,0-0.032,0-0.04,0c-0.04,0-0.08,0.008-0.128,0.008
	c-0.016,0-0.032,0-0.048,0c-0.032,0-0.064,0-0.096,0.008c-0.016,0-0.048,0-0.064,0c-0.032,0-0.072,0-0.104,0.008
	c-0.016,0-0.032,0-0.048,0c-0.04,0-0.072,0-0.104,0.008c-0.016,0-0.04,0-0.056,0c-0.032,0-0.064,0-0.096,0.008
	c-0.016,0-0.032,0-0.048,0c-0.04,0-0.072,0.008-0.112,0.008c-0.016,0-0.04,0-0.056,0c-0.032,0-0.056,0-0.088,0.008
	c-0.016,0-0.04,0-0.056,0c-0.04,0-0.08,0.008-0.12,0.008c-0.016,0-0.032,0-0.048,0c-0.032,0-0.064,0-0.088,0.008
	c-0.016,0-0.04,0-0.056,0c-0.04,0-0.08,0.008-0.112,0.008c-0.024,0-0.04,0-0.064,0s-0.048,0-0.072,0.008c-0.016,0-0.04,0-0.056,0
	c-0.04,0-0.08,0.008-0.112,0.008c-0.024,0-0.032,0-0.064,0c-0.024,0-0.056,0-0.08,0.008c-0.016,0-0.04,0-0.056,0
	c-0.04,0-0.08,0.008-0.112,0.008c-0.024,0-0.04,0-0.064,0s-0.056,0-0.08,0.008c-0.024,0-0.048,0-0.072,0.008
	c-0.032,0-0.064,0-0.096,0.008c-0.016,0-0.04,0-0.056,0c-0.032,0-0.056,0-0.088,0.008c-0.024,0-0.048,0-0.072,0.008
	c-0.032,0-0.056,0-0.088,0.008c-0.016,0-0.04,0-0.056,0c-0.032,0-0.064,0.008-0.096,0.008c-0.024,0-0.04,0-0.064,0.008
	c-0.032,0-0.056,0-0.088,0.008c-0.016,0-0.04,0-0.064,0c-0.04,0-0.072,0.008-0.112,0.008c-0.016,0-0.048,0-0.064,0.008
	c-0.024,0-0.048,0-0.072,0.008s-0.04,0-0.064,0.008c-0.04,0-0.08,0.008-0.112,0.008c-0.016,0-0.04,0-0.056,0
	c-0.024,0-0.056,0-0.08,0.008s-0.04,0-0.064,0.008c-0.04,0-0.072,0.008-0.112,0.008c-0.024,0-0.04,0-0.064,0.008
	c-0.024,0-0.048,0-0.072,0.008c-0.024,0-0.04,0-0.064,0.008c-0.04,0-0.072,0.008-0.112,0.008c-0.024,0-0.04,0-0.064,0.008
	c-0.024,0-0.048,0-0.072,0.008c-0.016,0-0.04,0-0.064,0.008c-0.04,0-0.08,0.008-0.112,0.008c-0.016,0-0.04,0-0.056,0.008
	c-0.024,0-0.048,0-0.072,0.008c-0.024,0-0.064,0.008-0.088,0.008s-0.056,0-0.08,0.008c-0.016,0-0.048,0-0.064,0.008
	c-0.024,0-0.056,0-0.08,0.008c-0.032,0-0.048,0-0.08,0.008c-0.024,0-0.056,0.008-0.08,0.008c-0.016,0-0.048,0-0.064,0.008
	c-0.024,0-0.056,0-0.08,0.008c-0.032,0-0.056,0.008-0.088,0.008c-0.024,0-0.048,0-0.072,0.008c-0.016,0-0.048,0-0.064,0.008
	c-0.032,0-0.056,0.008-0.088,0.008c-0.024,0-0.056,0.008-0.088,0.008c-0.024,0-0.048,0-0.072,0.008c-0.024,0-0.04,0-0.072,0.008
	c-0.024,0-0.056,0.008-0.088,0.008s-0.056,0.008-0.088,0.008c-0.024,0-0.04,0-0.064,0.008c-0.024,0-0.04,0-0.064,0.008
	c-0.04,0-0.072,0.008-0.112,0.008c-0.024,0-0.048,0-0.072,0.008c-0.024,0-0.04,0-0.064,0.008c-0.032,0-0.072,0.008-0.104,0.008
	c-0.024,0-0.048,0-0.072,0.008c-0.024,0-0.048,0-0.08,0.008c-0.016,0-0.032,0-0.056,0.008c-0.04,0-0.072,0.008-0.112,0.008
	c-0.024,0-0.04,0-0.064,0.008c-0.024,0-0.048,0-0.072,0.008c-0.024,0-0.04,0-0.056,0.008c-0.032,0-0.088,0.008-0.12,0.008
	c-0.016,0-0.04,0-0.056,0.008c-0.024,0-0.056,0.008-0.08,0.008c-0.016,0-0.04,0-0.056,0.008c-0.032,0-0.08,0.008-0.112,0.008
	c-0.024,0-0.04,0-0.056,0.008c-0.024,0-0.056,0.008-0.08,0.008c-0.016,0-0.032,0-0.056,0.008c-0.04,0-0.08,0.008-0.12,0.008
	c-0.016,0-0.04,0-0.056,0.008c-0.024,0-0.048,0.008-0.08,0.008c-0.016,0-0.032,0-0.048,0.008c-0.04,0-0.088,0.008-0.128,0.008
	c-0.016,0-0.032,0-0.048,0.008c-0.024,0-0.048,0.008-0.072,0.008s-0.048,0.008-0.072,0.008c-0.032,0-0.072,0.008-0.104,0.008
	c-0.016,0-0.04,0-0.056,0.008c-0.032,0-0.064,0.008-0.104,0.008c-0.024,0-0.056,0.008-0.08,0.008s-0.056,0.008-0.08,0.008
	c-0.016,0-0.032,0-0.048,0c-0.048,0.008-0.104,0.008-0.152,0.016c-0.008,0-0.016,0-0.032,0c-0.024,0-0.056,0.008-0.08,0.008
	c-0.016,0-0.032,0-0.04,0c-0.048,0.008-0.096,0.008-0.144,0.016c-0.016,0-0.024,0-0.04,0c-0.024,0-0.056,0.008-0.08,0.008
	c-0.016,0-0.032,0-0.048,0.008c-0.04,0-0.088,0.008-0.128,0.008c-0.016,0-0.032,0-0.056,0.008c-0.032,0-0.048,0.008-0.08,0.008
	c-0.016,0-0.032,0-0.04,0c-0.048,0.008-0.096,0.008-0.144,0.016c-0.016,0-0.024,0-0.04,0c-0.032,0-0.048,0.008-0.088,0.008
	c-0.008,0-0.016,0-0.024,0c-0.048,0.008-0.112,0.008-0.16,0.016c-0.008,0-0.024,0-0.032,0c-0.032,0-0.056,0.008-0.088,0.008
	c-0.008,0-0.016,0-0.024,0c-0.048,0.008-0.104,0.008-0.16,0.016c-0.008,0-0.024,0-0.04,0c-0.024,0-0.056,0.008-0.088,0.008
	c-0.008,0-0.008,0-0.016,0c-0.048,0.008-0.112,0.008-0.168,0.016c-0.016,0-0.024,0-0.04,0c-0.088,0.008-0.184,0.016-0.264,0.024
	c-0.016,0-0.024,0-0.04,0c-0.096,0.008-0.184,0.016-0.272,0.024c-0.008,0-0.016,0-0.024,0c-0.096,0.008-0.192,0.016-0.288,0.024
	c-0.008,0-0.016,0-0.016,0c-0.056,0.008-0.128,0.016-0.176,0.016c-0.008,0-0.016,0-0.024,0c-0.032,0-0.064,0.008-0.096,0.008
	c-0.008,0-0.008,0-0.016,0c-0.056,0.008-0.12,0.008-0.176,0.016c-0.008,0-0.016,0-0.024,0c-0.032,0-0.056,0.008-0.088,0.008
	c-0.008,0-0.008,0-0.016,0c-0.048,0.008-0.12,0.016-0.168,0.016c-0.008,0-0.016,0-0.024,0c-0.096,0.008-0.184,0.016-0.28,0.032
	c-0.008,0-0.016,0-0.024,0c-0.096,0.008-0.184,0.016-0.28,0.032c-0.008,0-0.016,0-0.032,0c-0.096,0.008-0.184,0.016-0.28,0.032
	c-0.008,0-0.016,0-0.016,0c-0.104,0.008-0.192,0.024-0.296,0.032c-0.008,0-0.008,0-0.016,0c-4.256,0.448-8.464,1-12.656,1.656
	l4.944,31.616c11.552-1.784,23.296-2.688,35-2.688V0L256.012,0L256.012,0z M177.292,12.328c-3.464,1.12-6.912,2.312-10.312,3.576
	h-0.008c-0.152,0.056-0.296,0.112-0.448,0.168h-0.008c-0.088,0.032-0.176,0.064-0.272,0.104c0,0,0,0-0.008,0
	c-0.088,0.032-0.176,0.064-0.272,0.104l0,0c-0.056,0.024-0.112,0.04-0.168,0.064c-0.008,0-0.016,0.008-0.024,0.008
	c-0.08,0.04-0.16,0.064-0.248,0.104c-0.008,0-0.008,0-0.008,0c-0.096,0.04-0.176,0.064-0.264,0.096
	c-0.008,0-0.016,0.008-0.032,0.008c-0.048,0.016-0.088,0.032-0.136,0.048c-0.016,0.008-0.024,0.008-0.04,0.016
	c-0.024,0.008-0.056,0.024-0.08,0.032c0,0-0.008,0-0.016,0.008c-0.048,0.016-0.104,0.04-0.152,0.056
	c-0.016,0.008-0.032,0.008-0.04,0.016c-0.048,0.016-0.08,0.032-0.128,0.048c-0.008,0.008-0.016,0.016-0.032,0.016
	c-0.032,0.008-0.048,0.016-0.08,0.032c-0.016,0.008-0.024,0.008-0.04,0.016c-0.048,0.016-0.08,0.032-0.128,0.048
	c-0.016,0.008-0.024,0.008-0.04,0.016c-0.024,0.008-0.056,0.024-0.08,0.032c0,0,0,0-0.008,0c-0.056,0.024-0.104,0.04-0.16,0.064
	c-0.016,0.008-0.024,0.008-0.04,0.016c-0.04,0.016-0.088,0.032-0.128,0.048c-0.016,0.008-0.024,0.008-0.04,0.016
	c-0.024,0.008-0.048,0.016-0.072,0.032c-0.016,0.008-0.024,0.008-0.04,0.016c-0.048,0.016-0.072,0.032-0.12,0.048
	c-0.016,0.008-0.032,0.016-0.048,0.016c-0.024,0.008-0.048,0.016-0.072,0.024c-0.016,0.008-0.032,0.008-0.048,0.016
	c-0.04,0.016-0.08,0.032-0.12,0.048c-0.016,0.008-0.032,0.016-0.048,0.016c-0.04,0.016-0.08,0.032-0.12,0.048
	c-0.016,0.008-0.024,0.008-0.04,0.016c-0.032,0.008-0.048,0.016-0.072,0.032c-0.016,0.008-0.032,0.016-0.048,0.016
	c-0.032,0.008-0.072,0.032-0.104,0.04c-0.024,0.008-0.04,0.016-0.064,0.024s-0.04,0.016-0.064,0.024
	c-0.032,0.016-0.072,0.024-0.104,0.04c-0.024,0.008-0.032,0.016-0.056,0.024s-0.048,0.016-0.064,0.024s-0.048,0.016-0.072,0.032
	c-0.032,0.008-0.056,0.024-0.088,0.032c-0.016,0.008-0.04,0.016-0.056,0.024c-0.032,0.008-0.056,0.024-0.088,0.032
	c-0.024,0.008-0.04,0.016-0.064,0.024c-0.032,0.008-0.056,0.024-0.088,0.032c-0.016,0.008-0.032,0.016-0.048,0.016
	c-0.04,0.016-0.072,0.032-0.104,0.04c-0.008,0.016-0.016,0.016-0.04,0.032c-0.024,0.008-0.048,0.024-0.08,0.032
	c-0.016,0.008-0.032,0.008-0.048,0.016c-0.04,0.016-0.072,0.032-0.104,0.04c-0.016,0.008-0.04,0.016-0.056,0.024
	c-0.032,0.008-0.056,0.024-0.088,0.032c-0.024,0.008-0.04,0.016-0.064,0.024s-0.056,0.024-0.08,0.032s-0.032,0.008-0.056,0.024
	c-0.032,0.016-0.072,0.032-0.104,0.04c-0.024,0.008-0.032,0.008-0.056,0.024c-0.024,0.008-0.048,0.024-0.072,0.032
	c-0.016,0.008-0.04,0.016-0.056,0.024c-0.032,0.016-0.064,0.024-0.104,0.04c-0.016,0.008-0.04,0.016-0.056,0.024
	c-0.032,0.008-0.056,0.024-0.088,0.032c-0.024,0.008-0.04,0.016-0.064,0.024s-0.056,0.024-0.08,0.032
	c-0.016,0.008-0.032,0.016-0.048,0.016c-0.04,0.016-0.072,0.032-0.104,0.04c-0.024,0.008-0.032,0.008-0.048,0.024
	c-0.024,0.008-0.056,0.024-0.08,0.032c-0.016,0.008-0.024,0.008-0.04,0.016c-0.032,0.016-0.072,0.032-0.104,0.04
	c-0.016,0.008-0.04,0.016-0.056,0.024c-0.04,0.016-0.072,0.032-0.112,0.048c-0.008,0-0.024,0.008-0.032,0.016
	c-0.032,0.016-0.064,0.024-0.096,0.04c-0.008,0-0.032,0.016-0.032,0.016c-0.048,0.016-0.08,0.032-0.12,0.048
	c-0.016,0.008-0.024,0.008-0.04,0.016c-0.032,0.016-0.064,0.024-0.088,0.04c-0.016,0.008-0.016,0.008-0.032,0.016
	c-0.04,0.016-0.08,0.032-0.12,0.048c-0.016,0.008-0.024,0.008-0.04,0.016c-0.04,0.016-0.08,0.032-0.12,0.048
	c-0.008,0-0.016,0.008-0.024,0.008c-0.04,0.016-0.072,0.032-0.112,0.048c-0.008,0-0.024,0.008-0.024,0.008
	c-0.04,0.016-0.08,0.032-0.12,0.048c-0.008,0-0.032,0.016-0.04,0.016c-0.032,0.016-0.072,0.032-0.104,0.04
	c-0.008,0-0.016,0.008-0.024,0.008c-0.04,0.016-0.08,0.032-0.12,0.048c-0.016,0.008-0.032,0.008-0.04,0.016
	c-0.04,0.016-0.072,0.032-0.112,0.048c-0.016,0.008-0.016,0.008-0.032,0.016c-0.032,0.016-0.064,0.024-0.096,0.04
	c-0.016,0.008-0.024,0.008-0.04,0.016c-0.04,0.016-0.08,0.032-0.12,0.048c-0.008,0-0.024,0.008-0.032,0.016
	c-0.04,0.016-0.072,0.032-0.104,0.048c-0.008,0-0.016,0.008-0.024,0.008c-0.04,0.016-0.08,0.032-0.12,0.048
	c-0.016,0.008-0.016,0.008-0.032,0.016c-0.04,0.016-0.08,0.032-0.12,0.048c-0.008,0-0.016,0.008-0.024,0.008
	c-0.04,0.016-0.072,0.032-0.112,0.048c-0.008,0-0.016,0.008-0.024,0.008c-0.04,0.016-0.08,0.032-0.128,0.048
	c-0.008,0-0.016,0.008-0.024,0.008c-0.04,0.016-0.08,0.032-0.12,0.048c-0.008,0,0,0-0.008,0c-0.04,0.016-0.088,0.032-0.128,0.056
	c-0.016,0.008-0.016,0.008-0.032,0.008c-0.04,0.016-0.088,0.04-0.128,0.056h-0.008c-0.048,0.016-0.088,0.04-0.136,0.056
	l-0.016,0.008c-0.04,0.016-0.088,0.04-0.136,0.056c-0.008,0-0.008,0-0.016,0.008c-0.088,0.04-0.176,0.072-0.264,0.112
	c-0.008,0-0.008,0.008-0.016,0.008c-0.04,0.016-0.088,0.04-0.136,0.056h-0.008c-0.048,0.016-0.088,0.04-0.136,0.056h-0.008
	c-0.048,0.016-0.088,0.04-0.136,0.056c-0.008,0-0.008,0.008-0.016,0.008c-0.088,0.04-0.176,0.072-0.264,0.112
	c-0.008,0-0.008,0.008-0.016,0.008c-0.088,0.04-0.184,0.08-0.272,0.12h-0.008c-0.048,0.016-0.088,0.04-0.136,0.056
	c-0.008,0-0.008,0-0.016,0.008c-0.088,0.04-0.184,0.08-0.272,0.12v0.016c-0.048,0.016-0.088,0.04-0.136,0.056l0,0
	c-0.096,0.04-0.184,0.08-0.28,0.12c-0.008,0,0,0-0.008,0c-0.088,0.04-0.184,0.08-0.272,0.12c-0.008,0,0,0-0.008,0.008
	c-0.144,0.064-0.28,0.12-0.424,0.184c-0.008,0,0,0-0.008,0c-0.096,0.04-0.184,0.08-0.28,0.12c-0.008,0,0,0-0.008,0
	c-0.144,0.064-0.28,0.12-0.424,0.184c-0.008,0,0,0-0.008,0c-0.096,0.04-0.184,0.08-0.28,0.12l0,0
	c-0.144,0.064-0.288,0.128-0.424,0.184l0,0c-4.136,1.832-8.208,3.76-12.224,5.8l14.48,28.536
	c10.376-5.264,21.24-9.744,32.296-13.312L177.292,12.328L177.292,12.328z M106.236,48.368c-7.584,5.48-14.856,11.368-21.784,17.624
	l0,0c-0.048,0.04-0.088,0.08-0.136,0.128l0,0c-0.072,0.064-0.136,0.128-0.208,0.192l0,0c-0.12,0.112-0.232,0.208-0.344,0.312
	c-0.008,0.008-0.008,0.008-0.016,0.016c-0.048,0.04-0.088,0.08-0.128,0.12l0,0c-0.024,0.024-0.048,0.04-0.072,0.064l0,0
	c-0.048,0.048-0.08,0.08-0.128,0.12c-0.008,0.008-0.008,0.008-0.016,0.016c-0.072,0.064-0.128,0.12-0.2,0.184
	c0,0-0.008,0.008-0.016,0.008c-0.048,0.04-0.08,0.072-0.128,0.12l-0.008,0.008c-0.072,0.064-0.128,0.12-0.2,0.184
	c-0.008,0.008-0.016,0.008-0.016,0.008c-0.04,0.04-0.088,0.08-0.128,0.112C82.7,67.592,82.7,67.592,82.692,67.6
	c-0.024,0.024-0.04,0.032-0.064,0.056c-0.008,0.008-0.016,0.016-0.024,0.024c-0.032,0.032-0.072,0.064-0.104,0.096
	c-0.008,0.008-0.024,0.016-0.032,0.032c-0.04,0.04-0.08,0.072-0.12,0.112l-0.008,0.008c-0.016,0.016-0.04,0.04-0.056,0.056
	c-0.032,0.016-0.04,0.024-0.048,0.032c-0.032,0.032-0.056,0.048-0.088,0.088c-0.008,0.008-0.024,0.024-0.032,0.032
	c-0.024,0.024-0.032,0.032-0.056,0.056c-0.016,0.016-0.024,0.024-0.04,0.04c-0.032,0.024-0.056,0.048-0.08,0.08
	c-0.016,0.016-0.032,0.024-0.04,0.04c-0.032,0.024-0.048,0.04-0.072,0.072c-0.016,0.016-0.032,0.032-0.056,0.048
	c-0.008,0.008-0.032,0.032-0.048,0.048s-0.04,0.04-0.064,0.056c-0.016,0.016-0.048,0.04-0.064,0.056
	c-0.016,0.016-0.032,0.032-0.048,0.048s-0.032,0.024-0.048,0.04c-0.024,0.024-0.048,0.048-0.08,0.072
	c-0.016,0.016-0.032,0.032-0.048,0.048s-0.032,0.032-0.048,0.048c-0.024,0.024-0.048,0.048-0.072,0.064
	c-0.016,0.016-0.032,0.032-0.048,0.048s-0.032,0.032-0.048,0.048c-0.024,0.024-0.056,0.048-0.08,0.072
	c-0.008,0.008-0.024,0.024-0.04,0.04c-0.024,0.016-0.04,0.04-0.064,0.056c-0.008,0.008-0.024,0.024-0.04,0.032
	c-0.024,0.024-0.056,0.056-0.088,0.08c-0.008,0.008-0.024,0.024-0.04,0.032c-0.024,0.024-0.056,0.048-0.08,0.072
	c-0.008,0.008-0.032,0.024-0.04,0.04c-0.024,0.024-0.048,0.048-0.072,0.064l-0.024,0.024c-0.032,0.032-0.064,0.056-0.096,0.088
	L80.46,69.68c-0.024,0.024-0.056,0.048-0.08,0.08c-0.008,0.008-0.016,0.016-0.024,0.024c-0.024,0.024-0.056,0.048-0.08,0.08
	c-0.008,0.008-0.024,0.016-0.032,0.032c-0.032,0.032-0.064,0.056-0.088,0.088c-0.008,0.008-0.016,0.008-0.024,0.024
	c-0.032,0.024-0.056,0.056-0.088,0.08c-0.008,0.008-0.008,0.008-0.008,0.008c-0.056,0.024-0.088,0.056-0.12,0.088L79.9,70.2
	c-0.032,0.032-0.064,0.064-0.104,0.096c-0.008,0.008,0,0-0.008,0.008c-0.032,0.032-0.064,0.072-0.104,0.104l0,0
	c-0.04,0.04-0.072,0.072-0.112,0.104c0,0.008-0.008,0.008-0.008,0.008c-0.08,0.072-0.152,0.144-0.224,0.208
	c-0.008,0.008,0,0-0.008,0.008c-1.2,1.152-2.4,2.312-3.576,3.48l22.528,22.72c8.272-8.2,17.248-15.816,26.68-22.632L106.236,48.368
	L106.236,48.368z M49.652,104.472c-1.448,1.968-2.864,3.952-4.256,5.96l0,0c-0.032,0.04-0.056,0.088-0.088,0.128l0,0
	c-0.024,0.04-0.056,0.08-0.08,0.12c-0.008,0.008-0.008,0.008-0.008,0.016c-0.024,0.04-0.056,0.08-0.08,0.12l-0.008,0.008
	c-0.024,0.04-0.056,0.08-0.08,0.112l-0.008,0.008c-0.024,0.04-0.056,0.08-0.08,0.112c-0.008,0.008-0.016,0.016-0.016,0.024
	c-0.024,0.04-0.048,0.072-0.08,0.112c0,0,0,0-0.008,0.008c-0.024,0.04-0.048,0.08-0.072,0.112c-0.008,0.008-0.016,0.016-0.016,0.024
	c-0.024,0.04-0.048,0.072-0.072,0.112c-0.008,0.008-0.016,0.024-0.016,0.024c-0.024,0.032-0.04,0.064-0.064,0.096
	c-0.008,0.008-0.008,0.016-0.016,0.024c-0.024,0.04-0.048,0.072-0.072,0.104c-0.008,0.016-0.016,0.016-0.024,0.032
	c-0.024,0.032-0.048,0.072-0.072,0.104c-0.008,0.016-0.016,0.016-0.024,0.032c-0.016,0.024-0.04,0.056-0.056,0.08
	c-0.008,0.016-0.016,0.024-0.024,0.04c-0.024,0.032-0.04,0.064-0.064,0.096c-0.008,0.016-0.024,0.032-0.032,0.04
	c-0.016,0.024-0.04,0.056-0.056,0.088c-0.008,0.016-0.016,0.024-0.024,0.04c-0.016,0.032-0.04,0.056-0.056,0.088
	c-0.008,0.016-0.024,0.032-0.032,0.048c-0.024,0.032-0.04,0.064-0.064,0.096c-0.008,0.016-0.024,0.032-0.032,0.048
	c-0.016,0.024-0.032,0.04-0.048,0.064s-0.024,0.04-0.04,0.064c-0.016,0.024-0.032,0.056-0.056,0.08
	c-0.008,0.016-0.024,0.032-0.032,0.048c-0.016,0.024-0.04,0.056-0.056,0.08s-0.024,0.032-0.04,0.056
	c-0.016,0.024-0.032,0.04-0.048,0.064s-0.016,0.032-0.032,0.048c-0.016,0.032-0.04,0.056-0.056,0.088
	c-0.016,0.024-0.024,0.04-0.04,0.056c-0.008,0.016-0.024,0.032-0.032,0.056c-0.016,0.024-0.04,0.064-0.064,0.088
	c-0.008,0.016-0.024,0.032-0.032,0.048c-0.016,0.024-0.024,0.04-0.04,0.064c-0.016,0.024-0.032,0.048-0.048,0.072
	s-0.032,0.048-0.048,0.072c-0.008,0.016-0.024,0.032-0.032,0.048c-0.016,0.024-0.04,0.056-0.064,0.096
	c-0.008,0.008-0.016,0.024-0.024,0.032c-0.016,0.024-0.032,0.048-0.04,0.064c-0.008,0.016-0.016,0.032-0.032,0.04
	c-0.024,0.032-0.048,0.072-0.072,0.104c-0.008,0.016-0.016,0.024-0.024,0.04c-0.016,0.024-0.032,0.04-0.04,0.064
	c-0.016,0.016-0.024,0.04-0.04,0.056c-0.016,0.024-0.048,0.064-0.064,0.096c-0.008,0.008-0.016,0.024-0.024,0.032
	c-0.024,0.04-0.056,0.08-0.08,0.12c-0.008,0.008-0.008,0.016-0.016,0.024c-0.016,0.024-0.032,0.048-0.048,0.072
	c0,0.008-0.008,0.016-0.008,0.016c-0.032,0.056-0.064,0.096-0.096,0.144c0,0.008-0.008,0.008-0.008,0.008
	c-0.056,0.088-0.104,0.152-0.16,0.232c0,0.008-0.008,0.008-0.008,0.016c-0.032,0.056-0.056,0.088-0.096,0.144
	c0,0.008-0.008,0.008-0.008,0.008c-0.056,0.088-0.104,0.152-0.152,0.232c0,0.008-0.008,0.008-0.008,0.016
	c-0.032,0.056-0.064,0.096-0.096,0.144l0,0c-0.056,0.08-0.104,0.16-0.16,0.24l0,0c-0.056,0.08-0.104,0.16-0.16,0.24l0,0
	c-4.744,7.248-9.136,14.752-13.144,22.488l28.416,14.72c5.344-10.32,11.56-20.312,18.464-29.696L49.652,104.472L49.652,104.472z
	 M13.02,175.216c-1.048,3.152-2.04,6.344-2.968,9.544c0,0.008,0,0.016,0,0.016c-0.024,0.096-0.056,0.184-0.08,0.264
	c0,0.008-0.008,0.024-0.008,0.032c-0.016,0.048-0.024,0.096-0.04,0.144c0,0.008-0.008,0.024-0.008,0.032
	c-0.008,0.024-0.016,0.056-0.024,0.08c0,0.016-0.008,0.032-0.016,0.048c-0.008,0.04-0.024,0.08-0.032,0.12
	c-0.008,0.016-0.008,0.04-0.016,0.056c-0.008,0.024-0.016,0.048-0.024,0.072s-0.016,0.048-0.024,0.072
	c-0.008,0.032-0.016,0.056-0.024,0.088c-0.008,0.024-0.008,0.04-0.016,0.064c-0.008,0.024-0.008,0.04-0.016,0.064
	c-0.008,0.032-0.016,0.072-0.032,0.104c-0.008,0.024-0.008,0.04-0.016,0.064c-0.008,0.024-0.008,0.04-0.016,0.064
	c-0.008,0.024-0.016,0.072-0.024,0.088c-0.008,0.024-0.016,0.048-0.024,0.072c-0.008,0.016-0.016,0.048-0.016,0.064
	c-0.008,0.024-0.016,0.048-0.024,0.08s-0.016,0.048-0.024,0.08c-0.008,0.024-0.016,0.056-0.024,0.08
	c-0.008,0.016-0.008,0.032-0.016,0.048c-0.008,0.04-0.024,0.08-0.032,0.112c-0.008,0.016-0.008,0.024-0.008,0.04
	c-0.008,0.032-0.016,0.064-0.024,0.096c-0.008,0.016-0.008,0.024-0.016,0.04c-0.008,0.04-0.024,0.08-0.032,0.112
	c-0.008,0.016-0.008,0.032-0.016,0.048c-0.008,0.032-0.016,0.064-0.024,0.096c0,0.008-0.008,0.024-0.008,0.032
	c-0.008,0.04-0.024,0.08-0.032,0.128c-0.008,0.016-0.008,0.016-0.008,0.032c-0.016,0.04-0.024,0.088-0.04,0.128c0,0.008,0,0,0,0.008
	c-0.008,0.04-0.024,0.08-0.032,0.12c0,0.008-0.008,0.024-0.008,0.032c-0.016,0.04-0.024,0.088-0.04,0.128l-0.008,0.016
	c-0.008,0.04-0.024,0.08-0.032,0.128l-0.008,0.016c-0.016,0.048-0.024,0.088-0.04,0.136c0,0.008,0,0.016-0.008,0.024
	c-0.016,0.048-0.024,0.088-0.04,0.136v0.008c-0.016,0.048-0.024,0.096-0.04,0.136l-0.008,0.016c-0.024,0.096-0.056,0.192-0.08,0.288
	l0,0c-0.04,0.152-0.08,0.296-0.12,0.448l0,0c-0.024,0.096-0.056,0.2-0.08,0.296v0.008c-2.032,7.576-3.728,15.28-5.064,23.12l0,0
	c-0.016,0.104-0.032,0.208-0.056,0.312v0.008c-0.008,0.048-0.016,0.104-0.024,0.152l0,0c-0.008,0.048-0.016,0.104-0.024,0.152l0,0
	c-0.008,0.048-0.016,0.096-0.024,0.144c0,0.008,0,0.016-0.008,0.024c-0.016,0.096-0.032,0.184-0.048,0.28
	c0,0.008,0,0.024-0.008,0.032c-0.008,0.048-0.016,0.088-0.024,0.136c0,0.008,0,0.008,0,0.016c-0.008,0.04-0.016,0.08-0.016,0.112
	c0,0.008,0,0.016-0.008,0.024l31.576,5.208c1.896-11.48,4.712-22.888,8.376-33.912L13.02,175.216L13.02,175.216z M0.02,253.824
	c0,0.104,0,0.208,0,0.312c0,0.008,0,0.008,0,0.016c0,0.024,0,0.064,0,0.088c0,0.04,0,0.088,0,0.128l0,0c0,0.36,0,0.72-0.008,1.08
	v0.008c0,0.088,0,0.168,0,0.256c0,0.008,0,0.024,0,0.032c0,0.032,0,0.064,0,0.088c0,0.008,0,0.032,0,0.04c0,0.048,0,0.088,0,0.128
	l0,0c0,0.04,0,0.088,0,0.136c0,0.016,0,0.024,0,0.04c0,0.04,0,0.072,0,0.112c0,0.008,0,0.016,0,0.024c0,0.048,0,0.088,0,0.136
	c0,0.008,0,0.024,0,0.032c0,0.032,0,0.072,0,0.104c0,0.016,0,0.016,0,0.04c0,0.04,0,0.088,0,0.128c0,0.008,0,0.016,0,0.024
	c0,0.032,0,0.072,0,0.112c0,0.008,0,0.032,0,0.04c0,0.04,0,0.088,0,0.128c0,0.008,0,0.024,0,0.032c0,0.032,0,0.072,0,0.104
	c0,0.016,0,0.024,0,0.04c0,0.04,0,0.088,0,0.128c0,0.008,0,0.008,0,0.016c0,0.04,0,0.08,0,0.12c0,0.016,0,0.024,0,0.04
	c0,0.04,0,0.088,0,0.128l0,0c0,0.04,0,0.088,0,0.128c0,0.016,0,0.032,0,0.048c0,0.032,0,0.064,0,0.104c0,0.016,0,0.016,0,0.032
	c0,0.04,0,0.088,0,0.128c0,0.008,0,0.032,0,0.04c0,0.032,0,0.064,0,0.096c0,0.008,0,0.032,0,0.04c0,0.04,0,0.08,0,0.12
	c0,0.016,0,0.024,0,0.04c0,0.032,0,0.064,0,0.096c0,0.008,0,0.032,0,0.048c0,0.04,0,0.08,0,0.12c0,0.016,0,0.024,0,0.04
	c0,0.032,0,0.064,0,0.088c0,0.016,0,0.032,0,0.048c0,0.032,0,0.064,0,0.096c0,0.016,0,0.04,0,0.056c0,0.032,0,0.072,0,0.104
	c0,0.016,0,0.024,0,0.04c0,0.032,0,0.072,0,0.104c0,0.008,0,0.016,0,0.024c0,0.04,0,0.088,0,0.128c0,0.008,0,0.032,0,0.048
	c0,0.032,0,0.064,0,0.088c0,0.016,0,0.032,0,0.048c0,0.04,0,0.08,0,0.12c0,0.016,0,0.024,0,0.04c0,0.032,0,0.064,0,0.096
	c0,0.008,0,0.032,0,0.04c0,0.04,0,0.08,0,0.128c0,0.008,0,0.024,0,0.032c0,0.032,0,0.064,0,0.096c0,0.016,0,0.032,0,0.048
	c0,0.032,0,0.072,0,0.112c0,0.016,0,0.032,0,0.048c0,0.032,0,0.064,0,0.096c0,0.016,0,0.032,0,0.048c0,0.032,0,0.056,0,0.088
	c0,0.024,0,0.032,0,0.056c0,0.032,0,0.064,0,0.104c0,0.016,0,0.04,0,0.056c0,0.032,0,0.056,0,0.088c0,0.016,0,0.024,0,0.048
	c0,0.04,0,0.08,0,0.12c0,0.024,0,0.032,0,0.056s0,0.048,0,0.072s0,0.032,0,0.056c0,0.04,0,0.072,0,0.112c0,0.016,0,0.04,0,0.056
	c0,0.024,0,0.048,0,0.072c0,0.016,0,0.04,0,0.056c0,0.032,0,0.064,0,0.096c0,0.024,0,0.048,0,0.072s0,0.056,0,0.08
	c0,0.016,0,0.04,0,0.056c0,0.024,0,0.048,0,0.072s0,0.064,0,0.088c0,0.024,0,0.056,0,0.08c0,0.016,0,0.04,0,0.056
	c0,0.024,0,0.048,0,0.08c0,0.016,0,0.048,0,0.064c0,0.032,0,0.064,0,0.104c0,0.024,0,0.032,0,0.056s0,0.048,0,0.08
	c0,0.016,0,0.04,0,0.056c0,0.04,0,0.072,0,0.112c0,0.024,0,0.032,0,0.064c0,0.024,0,0.04,0,0.064s0,0.04,0,0.064
	c0,0.032,0,0.064,0,0.096c0,0.024,0,0.056,0,0.08c0,0.016,0,0.04,0,0.056c0,0.024,0,0.048,0,0.072c0,0.016,0,0.04,0,0.056
	c0,0.032,0,0.08,0,0.112c0,0.024,0,0.04,0,0.064c0,0.016,0,0.056,0,0.072s0,0.04,0,0.056c0,0.04,0,0.08,0,0.12
	c0,0.016,0,0.04,0,0.056c0,0.024,0,0.048,0,0.072c0,0.016,0,0.04,0,0.056c0,0.04,0,0.096,0.008,0.136c0,0.016,0,0.024,0,0.04
	c0,0.024,0,0.056,0,0.08c0,0.016,0,0.032,0,0.048c0,0.024,0,0.048,0,0.08c0,0.016,0,0.024,0,0.04c0,0.048,0,0.096,0.008,0.144
	c0,0.016,0,0.024,0,0.04c0,0.024,0,0.056,0,0.08c0,0.008,0,0.016,0,0.032c0,0.048,0,0.104,0.008,0.152c0,0.016,0,0.024,0,0.04
	c0,0.032,0,0.048,0,0.08c0,0.008,0,0.024,0,0.032c0,0.048,0,0.096,0.008,0.144c0,0.016,0,0.032,0,0.04c0,0.024,0,0.056,0,0.08
	c0,0.008,0,0.024,0,0.032c0,0.088,0.008,0.184,0.008,0.272c0,0.008,0,0.016,0,0.032c0,0.088,0.008,0.192,0.008,0.28
	c0,0.008,0,0.016,0,0.024c0,0.032,0,0.056,0,0.088v0.008c0,0.056,0.008,0.128,0.008,0.184c0,0.008,0,0.016,0,0.016
	c0,0.04,0,0.064,0,0.104v0.008c0,0.072,0.008,0.128,0.008,0.2l0,0c0,0.04,0,0.064,0.008,0.104v0.008
	c0,0.104,0.008,0.192,0.008,0.296v0.008c0.008,0.104,0.008,0.192,0.016,0.296c0,0,0,0.008,0,0.016
	c0.008,0.104,0.008,0.192,0.016,0.296v0.008c0.016,0.448,0.04,0.88,0.064,1.328l0,0c0.416,8.424,1.232,16.744,2.44,24.928
	l31.656-4.672c-1.464-10.848-2.272-21.96-2.272-33.024l0.008-1.912L0.02,253.824L0.02,253.824z M42.22,323.08l-30.536,9.568
	c0.008,0.016,0.008,0.024,0.016,0.04l0,0c0.016,0.056,0.032,0.112,0.056,0.168c0,0.008,0.008,0.024,0.008,0.04
	c0.024,0.088,0.056,0.176,0.08,0.264v0.008c0.016,0.064,0.04,0.112,0.056,0.176v0.008c0.032,0.096,0.056,0.176,0.088,0.272
	c0,0.008,0.008,0.016,0.008,0.024c0.08,0.248,0.152,0.488,0.232,0.736l0,0c1.04,3.24,2.144,6.456,3.312,9.64v0.008
	c0.088,0.248,0.176,0.488,0.272,0.728v0.008c0.056,0.152,0.112,0.296,0.168,0.448v0.008c0.032,0.096,0.064,0.176,0.096,0.264
	c0,0.008,0.008,0.016,0.008,0.024c0.088,0.24,0.176,0.48,0.264,0.712c0,0.008,0,0.008,0.008,0.016
	c0.056,0.152,0.112,0.288,0.168,0.448v0.008c0.032,0.088,0.064,0.168,0.096,0.256c0,0.008,0.008,0.016,0.008,0.024
	c0.024,0.056,0.04,0.104,0.064,0.16v0.008c0.008,0.032,0.024,0.056,0.032,0.088c0,0.008,0.008,0.016,0.008,0.024
	c0.016,0.048,0.04,0.104,0.056,0.144c0,0.008,0.008,0.016,0.008,0.024c0.032,0.08,0.064,0.16,0.096,0.248
	c0.008,0.016,0.008,0.032,0.016,0.04c0.016,0.048,0.032,0.08,0.048,0.128c0.008,0.016,0.008,0.024,0.016,0.04
	c0.008,0.032,0.016,0.048,0.032,0.08c0.008,0.008,0.008,0.024,0.016,0.032c0.016,0.048,0.032,0.088,0.048,0.128
	c0.008,0.016,0.008,0.032,0.016,0.04c0.008,0.024,0.016,0.048,0.024,0.072s0.016,0.04,0.024,0.064
	c0.008,0.032,0.024,0.064,0.04,0.096c0.008,0.016,0.016,0.04,0.024,0.056c0.016,0.04,0.024,0.056,0.04,0.096
	c0.008,0.024,0.016,0.04,0.024,0.064s0.016,0.04,0.024,0.064s0.016,0.048,0.024,0.072c0.008,0.032,0.024,0.056,0.032,0.088
	c0.008,0.024,0.016,0.04,0.024,0.064s0.016,0.04,0.024,0.064c0.016,0.032,0.024,0.064,0.04,0.096
	c0.008,0.024,0.016,0.04,0.024,0.056c0.008,0.024,0.016,0.04,0.024,0.064c0.016,0.032,0.024,0.064,0.04,0.096
	c0.008,0.024,0.016,0.048,0.024,0.064s0.016,0.048,0.024,0.064c0.008,0.024,0.016,0.048,0.032,0.072
	c0.008,0.024,0.024,0.056,0.032,0.08s0.016,0.048,0.024,0.072s0.016,0.032,0.024,0.056c0.016,0.032,0.024,0.072,0.04,0.104
	c0.008,0.016,0.016,0.032,0.016,0.048c0.008,0.032,0.024,0.056,0.032,0.088c0.008,0.016,0.008,0.024,0.016,0.04
	c0.016,0.04,0.032,0.072,0.048,0.112c0.008,0.016,0.016,0.032,0.016,0.048c0.016,0.032,0.024,0.064,0.04,0.096
	c0.008,0.024,0.016,0.032,0.024,0.056s0.024,0.048,0.032,0.08c0.008,0.024,0.016,0.032,0.024,0.056
	c0.016,0.032,0.024,0.072,0.04,0.104c0.008,0.016,0.016,0.032,0.024,0.048c0.008,0.024,0.024,0.056,0.032,0.08
	c0.008,0.016,0.016,0.04,0.024,0.048c0.016,0.032,0.024,0.072,0.04,0.104c0.008,0.016,0.016,0.032,0.016,0.048
	c0.016,0.032,0.024,0.064,0.04,0.096c0.008,0.024,0.016,0.032,0.024,0.056c0.008,0.032,0.024,0.056,0.032,0.08
	s0.008,0.024,0.016,0.048c0.016,0.04,0.032,0.072,0.04,0.112c0.008,0.016,0.016,0.032,0.016,0.048
	c0.008,0.032,0.024,0.064,0.04,0.088c0.008,0.016,0.008,0.024,0.016,0.04c0.016,0.04,0.032,0.072,0.04,0.112
	c0.008,0.016,0.016,0.04,0.024,0.056c0.016,0.04,0.032,0.072,0.04,0.112c0.008,0.016,0.008,0.024,0.016,0.04
	c0.008,0.032,0.024,0.056,0.032,0.088c0.008,0.024,0.008,0.024,0.016,0.048c0.016,0.04,0.032,0.072,0.048,0.112
	c0.032,0,0.032,0.008,0.04,0.024c0.016,0.032,0.024,0.064,0.04,0.096c0,0.008,0.008,0.024,0.016,0.032
	c0.016,0.04,0.032,0.08,0.048,0.12c0.008,0.016,0.008,0.024,0.016,0.04c0.016,0.04,0.032,0.08,0.048,0.12
	c0,0.008,0.008,0.008,0.008,0.016c0.016,0.04,0.032,0.072,0.048,0.112c0,0.008,0.008,0.024,0.016,0.032
	c0.016,0.04,0.032,0.08,0.048,0.12c0,0.008,0.008,0.024,0.008,0.032c0.016,0.04,0.032,0.08,0.048,0.12c0,0.008,0,0.008,0.008,0.016
	c0.016,0.04,0.032,0.088,0.056,0.128c0.008,0.016,0.008,0.016,0.008,0.024c0.016,0.04,0.032,0.088,0.056,0.128l0,0
	c0.016,0.04,0.032,0.08,0.048,0.128c0,0.008,0.008,0.024,0.008,0.032c0.016,0.04,0.032,0.08,0.048,0.128
	c0,0.008,0.008,0.016,0.008,0.024c0.016,0.04,0.032,0.088,0.056,0.128c0,0.008,0,0,0,0.008c0.016,0.04,0.032,0.088,0.056,0.128
	c0.008,0.016,0.008,0.008,0.008,0.024c0.016,0.04,0.032,0.088,0.056,0.128c0,0.008,0,0,0.008,0.008
	c0.016,0.04,0.032,0.088,0.056,0.128c0,0.008,0,0.008,0.008,0.016c0.016,0.048,0.04,0.088,0.056,0.136c0,0.008,0,0.008,0.008,0.016
	c0.04,0.088,0.072,0.176,0.112,0.272l0.008,0.016c0.04,0.088,0.072,0.184,0.112,0.272l0.008,0.008
	c0.016,0.048,0.04,0.088,0.056,0.136c0,0.008,0,0,0.008,0.008c0.04,0.088,0.08,0.184,0.112,0.272l0.008,0.016
	c0.04,0.096,0.08,0.184,0.12,0.28l0,0c0.024,0.048,0.04,0.096,0.064,0.144l0,0c0.04,0.096,0.08,0.192,0.12,0.28v0.008
	c0.04,0.096,0.08,0.184,0.12,0.28v0.008c0.064,0.144,0.12,0.28,0.184,0.424v0.008c0.104,0.24,0.2,0.472,0.304,0.712v0.008
	c0.208,0.48,0.408,0.952,0.616,1.424l0,0c0.104,0.24,0.208,0.472,0.312,0.712v0.008c0.064,0.144,0.128,0.28,0.184,0.424l0,0
	c0.04,0.088,0.08,0.184,0.12,0.28l0.008-0.008c0.04,0.088,0.08,0.184,0.12,0.272v0.008c0.024,0.048,0.04,0.088,0.064,0.136
	c0,0.008,0,0,0,0.008c0.04,0.088,0.08,0.184,0.12,0.272l0.016,0.016c0.04,0.096,0.08,0.184,0.128,0.272v0.008
	c0.024,0.048,0.04,0.088,0.064,0.136c0,0.008,0,0,0,0.008c0.04,0.088,0.08,0.184,0.12,0.272l0.008,0.008
	c0.04,0.088,0.08,0.176,0.12,0.272l0.008,0.016c0.024,0.048,0.04,0.088,0.064,0.136c0,0.008,0,0,0.008,0.008
	c0.04,0.088,0.08,0.176,0.12,0.264c0,0.008,0.008,0.008,0.008,0.016c0.016,0.04,0.04,0.088,0.056,0.128c0,0.008,0,0,0,0
	c0.024,0.048,0.04,0.088,0.056,0.128c0,0.008,0.008,0.008,0.008,0.016c0.016,0.04,0.04,0.08,0.056,0.128
	c0,0.008,0.008,0.016,0.008,0.024c0.016,0.04,0.04,0.08,0.056,0.128v0.008c0.016,0.04,0.04,0.08,0.056,0.12
	c0.008,0.016,0.008,0.016,0.016,0.032c0.016,0.04,0.04,0.08,0.056,0.12c0,0.008,0.008,0.016,0.008,0.016
	c0.016,0.032,0.032,0.072,0.048,0.104c0,0.008,0.008,0.024,0.016,0.032c0.016,0.04,0.04,0.08,0.056,0.12
	c0,0.008,0.008,0.016,0.008,0.024c0.016,0.04,0.032,0.072,0.056,0.112c0,0.008,0,0.008,0.008,0.016c0.016,0.04,0.04,0.08,0.056,0.12
	c0.008,0.016,0.008,0.016,0.016,0.032c0.016,0.04,0.032,0.08,0.056,0.12c0.008,0.016,0.008,0.016,0.016,0.032
	c0.016,0.032,0.032,0.064,0.048,0.096c0,0.008,0.008,0.024,0.016,0.032c0.016,0.04,0.032,0.072,0.056,0.112
	c0,0.008,0.016,0.032,0.016,0.04c0.016,0.032,0.032,0.064,0.048,0.104c0,0.008,0.008,0.024,0.016,0.032
	c0.016,0.032,0.032,0.072,0.048,0.104c0.008,0.016,0.016,0.032,0.024,0.048c0.016,0.04,0.032,0.072,0.048,0.112
	c0.008,0.016,0.008,0.024,0.016,0.04c0.016,0.024,0.024,0.056,0.04,0.08c0.008,0.016,0.016,0.032,0.024,0.048
	c0.016,0.032,0.032,0.072,0.048,0.104c0.008,0.024,0.016,0.032,0.024,0.048c0.016,0.024,0.024,0.048,0.04,0.08
	c0.008,0.024,0.024,0.048,0.032,0.072c0.016,0.024,0.024,0.048,0.04,0.08c0.008,0.016,0.016,0.04,0.024,0.056
	c0.016,0.024,0.024,0.048,0.04,0.08c0.016,0.032,0.024,0.048,0.04,0.08c0.008,0.016,0.016,0.04,0.024,0.056
	c0.008,0.024,0.016,0.04,0.032,0.064c0.016,0.032,0.032,0.064,0.048,0.096c0.008,0.024,0.016,0.04,0.032,0.064
	c0.008,0.016,0.016,0.04,0.032,0.056c0.016,0.032,0.032,0.072,0.048,0.104c0.008,0.016,0.016,0.032,0.024,0.048
	c0.008,0.024,0.024,0.048,0.032,0.072c0.008,0.008,0.008,0.024,0.016,0.032c0.024,0.04,0.04,0.088,0.064,0.128
	c0.008,0.008,0.008,0.024,0.016,0.032c0.04,0.08,0.08,0.16,0.112,0.24c0,0.008,0.008,0.016,0.008,0.024
	c0.024,0.048,0.048,0.096,0.072,0.152c0,0.008,0,0.008,0,0.008c0.04,0.088,0.08,0.168,0.128,0.256v0.008
	c0.04,0.088,0.08,0.168,0.128,0.256V367c0.44,0.92,0.88,1.816,1.336,2.728l28.664-14.232
	C50.076,345.072,45.692,334.168,42.22,323.08L42.22,323.08z M73.204,385.488l-26.096,18.52c0.04,0.056,0.08,0.12,0.128,0.176
	c0,0.008,0.008,0.008,0.008,0.008c0.04,0.056,0.064,0.096,0.104,0.144l0.008,0.008c0.056,0.08,0.104,0.144,0.16,0.224
	c0.008,0.008,0.008,0.016,0.016,0.016c0.032,0.048,0.072,0.096,0.104,0.144l0,0c0.016,0.024,0.032,0.04,0.048,0.072
	c0.008,0.008,0.016,0.024,0.024,0.032c0.032,0.04,0.056,0.072,0.08,0.112c0.008,0.008,0.016,0.016,0.016,0.024
	c0.048,0.072,0.104,0.144,0.152,0.216c0.008,0.008,0.016,0.016,0.016,0.024c0.032,0.04,0.056,0.072,0.08,0.112
	c0.008,0.016,0.016,0.024,0.024,0.04c0.016,0.016,0.032,0.04,0.04,0.064c0.008,0.016,0.024,0.032,0.032,0.048
	c0.024,0.032,0.048,0.064,0.072,0.096c0.008,0.016,0.016,0.024,0.032,0.04c0.024,0.032,0.04,0.056,0.064,0.088
	c0.016,0.016,0.024,0.032,0.04,0.056c0.016,0.016,0.032,0.04,0.04,0.064c0.008,0.016,0.024,0.032,0.032,0.048
	c0.016,0.024,0.048,0.064,0.064,0.088c0.008,0.016,0.024,0.032,0.032,0.048c0.016,0.016,0.024,0.04,0.04,0.056
	c0.024,0.024,0.04,0.056,0.064,0.088c0.016,0.016,0.024,0.032,0.04,0.048c0.016,0.024,0.032,0.04,0.04,0.064
	c0.016,0.016,0.032,0.048,0.048,0.064c0.04,0.032,0.056,0.056,0.072,0.08c0.008,0.016,0.024,0.032,0.032,0.048
	c0.024,0.032,0.04,0.056,0.064,0.088c0.008,0.016,0.024,0.032,0.032,0.048c0.016,0.024,0.032,0.048,0.056,0.072
	c0.008,0.016,0.016,0.024,0.024,0.032c0.024,0.032,0.048,0.064,0.072,0.096c0.008,0.016,0.024,0.032,0.032,0.04
	c0.024,0.032,0.048,0.064,0.064,0.096c0.008,0.016,0.016,0.024,0.024,0.032c0.016,0.024,0.04,0.056,0.056,0.08
	c0.016,0.016,0.016,0.024,0.032,0.04c0.024,0.032,0.048,0.064,0.072,0.096c0.008,0.008,0.024,0.032,0.024,0.032
	c0.024,0.032,0.04,0.056,0.064,0.088c0.008,0.008,0.016,0.016,0.016,0.024c0.024,0.032,0.048,0.064,0.072,0.096
	c0.008,0.016,0.016,0.024,0.024,0.032c0.024,0.032,0.048,0.064,0.072,0.104c0.008,0.016,0.016,0.016,0.024,0.032
	c0.024,0.032,0.04,0.056,0.064,0.088c0.008,0.008,0.008,0.016,0.016,0.024c0.024,0.032,0.048,0.072,0.08,0.104
	c0.008,0.016,0.016,0.016,0.024,0.032c0.024,0.04,0.056,0.072,0.08,0.112c0.008,0.008,0,0,0.008,0.008
	c0.024,0.032,0.048,0.064,0.072,0.104c0.008,0.008,0.016,0.024,0.024,0.032c0.024,0.04,0.056,0.072,0.08,0.104
	c0.008,0.008,0.008,0.016,0.008,0.016c0.032,0.048,0.064,0.08,0.088,0.12l0,0c0.032,0.04,0.056,0.072,0.088,0.112
	c0.008,0.008,0.008,0.016,0.008,0.016c0.032,0.048,0.064,0.08,0.088,0.12l0.008,0.008c0.032,0.04,0.056,0.08,0.088,0.12l0,0
	c0.032,0.04,0.056,0.08,0.088,0.12l0.008,0.008c0.064,0.08,0.12,0.16,0.184,0.24l0,0c5.616,7.512,11.632,14.712,18.024,21.56
	l0.008,0.008c0.064,0.072,0.136,0.144,0.208,0.216l0.008,0.008c0.032,0.032,0.064,0.072,0.096,0.104
	c0.008,0.008,0.008,0.008,0.016,0.016c0.032,0.032,0.064,0.064,0.096,0.104c0.008,0.008,0,0.008,0.008,0.008
	c0.032,0.032,0.056,0.064,0.088,0.096c0.008,0.008,0.016,0.016,0.024,0.024c0.032,0.032,0.064,0.064,0.088,0.096
	c0.008,0.008,0.016,0.024,0.024,0.024c0.024,0.024,0.048,0.056,0.08,0.08c0.008,0.008,0.016,0.016,0.016,0.016
	c0.032,0.032,0.056,0.064,0.088,0.088c0.008,0.008,0.024,0.024,0.032,0.032c0.024,0.032,0.056,0.056,0.08,0.088
	c0.008,0.008,0.024,0.024,0.032,0.032c0.016,0.024,0.04,0.04,0.056,0.064c0.008,0.008,0.024,0.032,0.04,0.04
	c0.024,0.024,0.048,0.056,0.08,0.08c0.016,0.016,0.024,0.032,0.04,0.048s0.032,0.032,0.048,0.048
	c0.024,0.024,0.048,0.056,0.072,0.072c0.016,0.016,0.032,0.032,0.04,0.048c0.016,0.016,0.032,0.032,0.048,0.048
	c0.008,0.016,0.024,0.024,0.032,0.04c0.024,0.032,0.064,0.064,0.088,0.096c0.008,0.008,0.016,0.016,0.024,0.024
	c0.04,0.04,0.072,0.08,0.112,0.12l0.008,0.008c0.064,0.064,0.128,0.136,0.192,0.2c0.008,0.008,0.016,0.016,0.016,0.016
	c0.656,0.688,1.328,1.384,1.992,2.072l22.912-22.336C87.484,404.024,79.94,394.976,73.204,385.488L73.204,385.488z M121.916,435.448
	l-19.176,25.616l0.008,0.008c0.08,0.064,0.16,0.12,0.24,0.184l0,0c0.04,0.032,0.08,0.064,0.12,0.088l0.008,0.008
	c5.04,3.76,10.216,7.328,15.528,10.712l0,0c0.088,0.056,0.176,0.112,0.264,0.168l0,0c0.04,0.024,0.088,0.056,0.128,0.08
	c0.008,0.008,0,0,0.008,0.008c0.088,0.056,0.168,0.104,0.256,0.16c0.008,0.008,0,0,0.008,0.008c0.04,0.024,0.08,0.056,0.12,0.08
	l0.016,0.008c0.04,0.024,0.08,0.048,0.12,0.08c0.008,0.008-0.008,0,0,0c0.04,0.024,0.08,0.048,0.12,0.08
	c0.016,0.008,0.008,0.008,0.024,0.016c0.04,0.024,0.08,0.048,0.12,0.072c0.008,0.008,0,0,0.008,0.008
	c0.04,0.024,0.08,0.048,0.112,0.072c0.008,0.008,0.008,0.008,0.008,0.008c0.048,0.032,0.088,0.056,0.12,0.08
	c0.008,0.008,0.016,0.008,0.024,0.016c0.032,0.024,0.072,0.048,0.104,0.064c0.008,0.008,0.016,0.008,0.024,0.016
	c0.04,0.024,0.072,0.048,0.112,0.072c0,0,0.016,0.008,0.024,0.016c0.04,0.024,0.08,0.048,0.112,0.072
	c0.008,0.008,0.016,0.008,0.016,0.016c0.04,0.024,0.072,0.048,0.112,0.072c0.008,0.008,0.008,0,0.016,0.008
	c0.04,0.024,0.072,0.048,0.112,0.072c0.016,0.008,0.024,0.016,0.032,0.024c0.032,0.024,0.072,0.048,0.112,0.064
	c0.008,0.008,0.016,0.008,0.024,0.016c0.032,0.016,0.064,0.04,0.088,0.056c0.016,0.008,0.024,0.016,0.04,0.024
	c0.032,0.024,0.064,0.04,0.104,0.064c0.024,0.016,0.024,0.016,0.048,0.024c0.024,0.016,0.048,0.032,0.072,0.048
	s0.04,0.024,0.056,0.04c0.024,0.016,0.056,0.032,0.08,0.048c0.016,0.008,0.04,0.024,0.048,0.032
	c0.032,0.016,0.056,0.032,0.088,0.056c0.016,0.008,0.04,0.024,0.056,0.032c0.024,0.016,0.048,0.024,0.064,0.04
	c0.016,0.008,0.032,0.024,0.048,0.032c0.032,0.016,0.064,0.04,0.088,0.056c0.024,0.016,0.04,0.024,0.056,0.032
	c0.024,0.016,0.04,0.024,0.064,0.04c0.024,0.016,0.048,0.032,0.08,0.048c0.016,0.008,0.04,0.024,0.056,0.032
	c0.024,0.016,0.04,0.024,0.064,0.04c0.032,0.016,0.056,0.032,0.088,0.056c0.024,0.016,0.04,0.024,0.064,0.04
	c0.016,0.008,0.032,0.016,0.048,0.024c0.04,0.024,0.072,0.048,0.112,0.072c0.008,0.008,0.024,0.016,0.032,0.024
	c0.024,0.016,0.04,0.024,0.064,0.04c0.016,0.008,0.024,0.016,0.04,0.024c0.032,0.024,0.08,0.048,0.112,0.072
	c0.008,0.008,0.024,0.016,0.032,0.024c0.072,0.048,0.152,0.088,0.224,0.136c0.008,0.008,0.016,0.008,0.032,0.016
	c0.04,0.024,0.088,0.048,0.128,0.08c0.008,0.008,0.016,0.008,0.024,0.016c0.08,0.048,0.152,0.088,0.232,0.144
	c0,0,0.008,0.008,0.016,0.008c4.304,2.616,8.672,5.096,13.136,7.456l14.96-28.288C141.18,448.728,131.244,442.432,121.916,435.448
	L121.916,435.448z M183.524,468.024l-10.352,30.28c1.736,0.592,3.456,1.16,5.2,1.712c0.008,0,0.016,0.008,0.024,0.008
	c0.048,0.016,0.104,0.032,0.152,0.048c0.008,0,0.016,0.008,0.024,0.008c0.032,0.008,0.048,0.016,0.08,0.024
	c0.008,0,0.016,0.008,0.024,0.008c0.048,0.016,0.096,0.032,0.144,0.048c0.016,0,0.024,0.008,0.04,0.008
	c0.024,0.008,0.056,0.016,0.08,0.024c0.016,0.008,0.032,0.008,0.04,0.016c0.04,0.016,0.08,0.024,0.12,0.04
	c0.024,0.008,0.04,0.016,0.064,0.016c0.032,0.008,0.048,0.016,0.08,0.024c0.024,0.008,0.056,0.016,0.08,0.024
	s0.04,0.016,0.064,0.016c0.024,0.008,0.048,0.016,0.08,0.024c0.024,0.008,0.04,0.016,0.064,0.024
	c0.032,0.008,0.064,0.016,0.088,0.032c0.016,0.008,0.032,0.008,0.048,0.016c0.04,0.008,0.08,0.024,0.112,0.04
	c0.008,0,0.024,0.008,0.032,0.008c0.032,0.008,0.064,0.024,0.104,0.032c0.008,0,0.032,0.008,0.04,0.008
	c0.04,0.016,0.08,0.024,0.12,0.04c0.008,0,0.032,0.008,0.04,0.016c0.032,0.008,0.064,0.016,0.096,0.032
	c0.016,0.008,0.024,0.008,0.04,0.008c0.04,0.016,0.08,0.024,0.12,0.04c0.016,0.008,0.024,0.008,0.04,0.016
	c0.04,0.016,0.08,0.024,0.12,0.04l0.016,0.008c0.04,0.016,0.08,0.024,0.12,0.04c0.008,0,0.024,0.008,0.032,0.008
	c0.04,0.016,0.088,0.024,0.128,0.04c0.008,0,0.016,0.008,0.024,0.008c0.04,0.016,0.08,0.024,0.12,0.04c0.008,0,0.008,0,0.016,0.008
	c0.048,0.016,0.088,0.024,0.136,0.04c0.008,0,0.016,0.008,0.024,0.008c0.04,0.016,0.088,0.024,0.136,0.04l0,0
	c0.048,0.016,0.096,0.032,0.136,0.04l0.016,0.008c0.096,0.032,0.184,0.056,0.28,0.088c0.008,0,0.008,0,0.016,0.008
	c0.048,0.016,0.096,0.032,0.144,0.04h0.008c0.048,0.016,0.096,0.032,0.144,0.04h0.008c0.048,0.016,0.096,0.032,0.144,0.04
	c0.008,0,0,0,0,0c5.504,1.656,11.088,3.128,16.744,4.416h0.008c0.096,0.024,0.2,0.048,0.296,0.064c0.008,0,0,0,0.008,0
	c0.048,0.008,0.096,0.024,0.144,0.032h0.008c0.048,0.008,0.096,0.024,0.144,0.032h0.008c0.048,0.008,0.096,0.024,0.144,0.032
	c0.008,0,0.008,0,0.016,0c0.096,0.024,0.192,0.04,0.288,0.064c0.008,0,0.016,0,0.024,0.008c0.048,0.008,0.096,0.024,0.136,0.032
	c0.008,0,0.008,0,0.016,0c0.04,0.008,0.088,0.016,0.128,0.032c0.008,0,0.016,0,0.024,0.008c0.048,0.008,0.088,0.016,0.136,0.032
	c0.008,0,0.016,0,0.024,0.008c0.04,0.008,0.08,0.016,0.128,0.024c0.008,0,0.008,0,0.016,0c0.04,0.008,0.088,0.016,0.128,0.032
	c0.016,0,0.024,0.008,0.04,0.008c0.04,0.008,0.088,0.016,0.128,0.032c0.008,0,0.008,0,0.016,0c0.04,0.008,0.08,0.016,0.12,0.024
	c0.008,0,0.032,0.008,0.04,0.008c0.04,0.008,0.088,0.016,0.128,0.032c0.016,0,0.008,0,0.024,0.008
	c0.04,0.008,0.072,0.016,0.112,0.024c0.016,0,0.024,0.008,0.04,0.008c0.04,0.008,0.08,0.016,0.12,0.024
	c0.016,0,0.032,0.008,0.048,0.008c0.032,0.008,0.056,0.016,0.088,0.016c0.024,0.008,0.04,0.008,0.064,0.016
	c0.032,0.008,0.064,0.016,0.096,0.024c0.016,0,0.048,0.008,0.064,0.016c0.024,0.008,0.056,0.016,0.08,0.016
	c0.024,0.008,0.056,0.008,0.08,0.016s0.048,0.008,0.08,0.016c0.024,0.008,0.032,0.008,0.056,0.016
	c0.032,0.008,0.072,0.016,0.112,0.024c0.024,0.008,0.04,0.008,0.064,0.016s0.048,0.008,0.064,0.016c0.016,0,0.048,0.008,0.064,0.016
	c0.032,0.008,0.072,0.016,0.104,0.024c0.024,0.008,0.04,0.008,0.072,0.016c0.024,0.008,0.048,0.008,0.072,0.016
	c0.032,0.008,0.056,0.016,0.088,0.016c0.024,0.008,0.048,0.008,0.08,0.016c0.024,0.008,0.04,0.008,0.064,0.016
	s0.04,0.008,0.064,0.016c0.04,0.008,0.072,0.016,0.12,0.024c0.016,0,0.032,0.008,0.048,0.008c0.024,0.008,0.056,0.008,0.08,0.016
	c0.032,0.008,0.064,0.016,0.096,0.024c0.024,0.008,0.048,0.008,0.072,0.016c0.016,0,0.032,0.008,0.048,0.008
	c0.04,0.008,0.088,0.016,0.128,0.024c0.016,0,0.032,0.008,0.048,0.008c0.032,0.008,0.048,0.008,0.08,0.016
	c0.008,0,0.024,0.008,0.032,0.008c0.048,0.008,0.104,0.024,0.152,0.032c0.008,0,0.024,0.008,0.032,0.008
	c0.032,0.008,0.048,0.008,0.08,0.016h0.016c0.048,0.008,0.112,0.024,0.16,0.032c0.008,0,0.024,0.008,0.032,0.008
	c0.088,0.016,0.184,0.04,0.272,0.056c0.008,0,0.008,0,0.016,0c0.16,0.032,0.312,0.064,0.48,0.096l0,0
	c2.28,0.464,4.576,0.896,6.88,1.296l5.48-31.528C205.9,474.696,194.516,471.776,183.524,468.024L183.524,468.024z M287.156,477.856
	c-10.24,1.424-20.72,2.144-31.144,2.144c-1.272,0-2.544-0.008-3.816-0.032l-0.536,31.992c0.792,0.016,1.584,0.024,2.376,0.032
	c0,0,0.008,0,0.016,0c0.032,0,0.064,0,0.096,0h0.008c0.064,0,0.12,0,0.184,0c0,0,0.016,0,0.024,0c0.024,0,0.048,0,0.072,0
	c0.016,0,0.032,0,0.048,0s0.048,0,0.064,0c0.016,0,0.04,0,0.056,0c0.024,0,0.048,0,0.08,0s0.064,0,0.096,0c0.016,0,0.04,0,0.056,0
	c0.024,0,0.04,0,0.064,0c0.016,0,0.04,0,0.064,0s0.04,0,0.064,0c0.016,0,0.04,0,0.056,0c0.04,0,0.072,0,0.112,0
	c0.016,0,0.024,0,0.04,0c0.032,0,0.056,0,0.088,0c0.016,0,0.032,0,0.048,0c0.024,0,0.048,0,0.08,0c0.016,0,0.032,0,0.048,0
	c0.04,0,0.08,0,0.12,0c0.008,0,0.008,0,0.016,0c0.032,0,0.064,0,0.104,0c0.016,0,0.024,0,0.048,0s0.056,0,0.08,0
	c0.008,0,0.032,0,0.04,0c0.04,0,0.08,0,0.12,0s0.08,0,0.128,0c0.008,0,0.032,0,0.04,0c0.032,0,0.064,0,0.096,0
	c0.008,0,0.024,0,0.032,0c0.04,0,0.08,0,0.128,0c0.008,0,0.008,0,0.016,0c0.032,0,0.072,0,0.104,0c0.016,0,0.032,0,0.048,0
	c0.032,0,0.056,0,0.088,0c0.016,0,0.016,0,0.04,0c0.04,0,0.08,0,0.12,0c0.016,0,0.016,0,0.032,0c0.032,0,0.064,0,0.088,0
	c0.016,0,0.024,0,0.048,0c0.032,0,0.064,0,0.096,0c0.008,0,0.024,0,0.032,0c0.04,0,0.08,0,0.128,0c0.008,0,0.024,0,0.032,0
	c0.032,0,0.064,0,0.096,0c0.008,0,0.032,0,0.04,0c0.04,0,0.08,0,0.128,0l0,0c0.04,0,0.08,0,0.12,0c0.016,0,0.024,0,0.04,0
	c0.032,0,0.056,0,0.088,0c0.008,0,0.032,0,0.04,0c0.04,0,0.08,0,0.12,0c0.008,0,0.024,0,0.032,0c0.032,0,0.064,0,0.096,0
	c0.016,0,0.024,0,0.04,0c0.032,0,0.056,0,0.088,0c0.016,0,0.024,0,0.04,0c0.04,0,0.08,0,0.12,0c0.016,0,0.016,0,0.032,0
	c0.032,0,0.064,0,0.096,0c0.016,0,0.024,0,0.04,0c0.032,0,0.072,0,0.104,0c0.008,0,0.016,0,0.024,0c0.04,0,0.08,0,0.12,0
	c0.008,0,0.04,0,0.048,0c0.032,0,0.056,0,0.088,0c0.008,0,0.032,0,0.04,0c0.04,0,0.08,0,0.12,0c0.008,0,0.008,0,0.016,0
	c0.04,0,0.072,0,0.112,0c0.008,0,0.024,0,0.032,0c0.032,0,0.064,0,0.096,0c0.016,0,0.024,0,0.04,0c0.04,0,0.08,0,0.12,0
	c0.008,0,0.016,0,0.024,0c0.032,0,0.064,0,0.104,0c0.016,0,0.024,0,0.04,0c0.032,0,0.064,0,0.104,0c0.008,0,0.016,0,0.032,0
	c0.04,0,0.08,0,0.12,0c0.016,0,0.024,0,0.04,0c0.024,0,0.056,0,0.088,0c0.016,0,0.024,0,0.048,0c0.032,0,0.064,0,0.096,0
	c0.008,0,0.024,0,0.032,0c0.04,0,0.08,0,0.112,0c0.008,0,0.04,0,0.048,0c0.024,0,0.056,0,0.08,0c0.016,0,0.032,0,0.048,0
	c0.04,0,0.072,0,0.112,0c0.008,0,0.032,0,0.04,0c0.032,0,0.056,0,0.088,0c0.016,0,0.04,0,0.056,0c0.024,0,0.056,0,0.08,0
	c0.016,0,0.032,0,0.048,0c0.04,0,0.08,0,0.112,0c0.016,0,0.032,0,0.048,0c0.024,0,0.048,0,0.072,0c0.016,0,0.04,0,0.056,0
	c0.024,0,0.048,0,0.072,0c0.016,0,0.032,0,0.048,0c0.04,0,0.072,0,0.112,0c0.016,0,0.04,0,0.056,0c0.024,0,0.048,0,0.072,0
	c0.016,0,0.04,0,0.064,0s0.056,0,0.08,0c0.016,0,0.048,0,0.064,0c0.032,0,0.064,0,0.088,0c0.024,0,0.032,0,0.056,0s0.048,0,0.072,0
	s0.024,0,0.056,0s0.064,0,0.096,0c0.024,0,0.04,0,0.072,0c0.024,0,0.048,0,0.072,0c0.016,0,0.04,0,0.056,0c0.024,0,0.048,0,0.072,0
	c0.016,0,0.04,0,0.056,0c0.04,0,0.072,0,0.112,0c0.016,0,0.032,0,0.048,0c0.024,0,0.048,0,0.072,0c0.016,0,0.048,0,0.064,0
	c0.024,0,0.04,0,0.064,0s0.048,0,0.072,0c0.032,0,0.064,0,0.096,0c0.024,0,0.032,0,0.064,0c0.024,0,0.04,0,0.064,0
	c0.016,0,0.04,0,0.064,0s0.04,0,0.064,0c0.032,0,0.064,0,0.104,0c0.024,0,0.04,0,0.064,0s0.04,0,0.064,0c0.016,0,0.032,0,0.056,0
	s0.048,0,0.072,0c0.016,0,0.032,0,0.048,0c0.04,0,0.088,0,0.128,0c0.016,0,0.032,0,0.048,0c0.024,0,0.048,0,0.08,0
	c0.016,0,0.024,0,0.04,0c0.088,0,0.168-0.008,0.256-0.008c0.016,0,0.032,0,0.048,0c0.024,0,0.048,0,0.08,0c0.008,0,0.024,0,0.032,0
	c0.064,0,0.112,0,0.168-0.008h0.008c0.024,0,0.056,0,0.08,0c0.016,0,0.024,0,0.04,0c0.024,0,0.056,0,0.08,0c0.008,0,0.016,0,0.024,0
	c0.064,0,0.12,0,0.176-0.008c0.008,0,0.008,0,0.008,0c0.024,0,0.064,0,0.088,0c0.008,0,0.024,0,0.032,0
	c0.088,0,0.192-0.008,0.28-0.008c0.008,0,0.016,0,0.024,0c0.032,0,0.048,0,0.088,0c0.008,0,0.016,0,0.032,0
	c0.088,0,0.184-0.008,0.272-0.008c0.008,0,0.016,0,0.024,0c0.032,0,0.048,0,0.088,0c0.008,0,0.016,0,0.024,0
	c0.096,0,0.192-0.008,0.288-0.008c0,0,0,0,0.008,0c0.136-0.008,0.264-0.008,0.4-0.016h0.008c8.424-0.344,16.736-1.096,24.928-2.232
	L287.156,477.856L287.156,477.856z M353.796,457.592c-10.464,5.088-21.408,9.376-32.52,12.76l9.312,30.616
	c11.048-3.36,21.784-7.448,32.144-12.2h0.008c0.088-0.04,0.184-0.08,0.272-0.128c0.008,0,0,0,0.008-0.008
	c0.048-0.024,0.088-0.04,0.136-0.064l0,0c0.04-0.024,0.088-0.04,0.128-0.064l0.016-0.008c0.04-0.024,0.088-0.04,0.128-0.064
	c0.008,0,0.008,0,0.016-0.008c0.088-0.04,0.176-0.08,0.264-0.12c0.008,0,0.008,0,0.016-0.008c0.04-0.024,0.088-0.04,0.128-0.064
	l0.016-0.008c0.04-0.016,0.08-0.04,0.12-0.056l0.008-0.008c0.04-0.016,0.08-0.04,0.128-0.056c0,0,0.016-0.008,0.024-0.008
	c0.04-0.024,0.088-0.04,0.128-0.056h0.008c0.04-0.016,0.08-0.032,0.112-0.056c0.008,0,0.032-0.016,0.04-0.016
	c0.04-0.016,0.08-0.04,0.12-0.056c0.008,0,0.024-0.008,0.024-0.016c0.032-0.016,0.064-0.032,0.096-0.048
	c0.016-0.008,0.016-0.008,0.032-0.016c0.04-0.016,0.072-0.032,0.112-0.056c0.016-0.008,0.024-0.016,0.04-0.024
	c0.032-0.016,0.064-0.032,0.088-0.04c0.024-0.008,0.04-0.016,0.064-0.032c0.024-0.016,0.056-0.024,0.08-0.04
	c0.016-0.008,0.032-0.016,0.048-0.024c0.032-0.016,0.064-0.032,0.104-0.048c0.024-0.008,0.032-0.016,0.056-0.024
	c0.016-0.008,0.04-0.016,0.056-0.032c0.032-0.016,0.048-0.024,0.08-0.04c0.024-0.008,0.048-0.024,0.072-0.032
	c0.024-0.008,0.04-0.016,0.064-0.032c0.016-0.008,0.04-0.016,0.056-0.024c0.04-0.016,0.064-0.032,0.104-0.048
	c0.016-0.008,0.032-0.016,0.048-0.024c0.024-0.008,0.048-0.024,0.072-0.032c0.008-0.008,0.016-0.008,0.032-0.016
	c0.04-0.024,0.088-0.04,0.128-0.064c0.008-0.008,0.024-0.008,0.032-0.016c0.048-0.024,0.104-0.048,0.152-0.072h0.008
	c0.032-0.016,0.048-0.024,0.08-0.04c0.008-0.008,0.024-0.008,0.032-0.016c0.04-0.024,0.096-0.048,0.136-0.064
	c0.008,0,0.016-0.008,0.024-0.008c0.088-0.04,0.16-0.08,0.248-0.12c0.008,0,0.008-0.008,0.008-0.008
	c0.096-0.048,0.168-0.08,0.256-0.12h0.008c0.264-0.128,0.52-0.248,0.784-0.376L353.796,457.592L353.796,457.592z M411.004,417.72
	c-8.408,8.064-17.512,15.528-27.064,22.184l18.304,26.248c1.608-1.12,3.184-2.248,4.76-3.4c0,0,0.008-0.008,0.016-0.008
	c0.048-0.04,0.088-0.064,0.144-0.104c0,0,0.008,0,0.008-0.008c0.08-0.056,0.144-0.104,0.224-0.16
	c0.008-0.008,0.008-0.008,0.016-0.016c0.08-0.056,0.144-0.104,0.216-0.16c0.008-0.008,0.016-0.008,0.024-0.016
	c0.04-0.032,0.088-0.064,0.12-0.088c0.008-0.008,0.016-0.016,0.024-0.016c0.072-0.056,0.144-0.104,0.208-0.16
	c0.008-0.008,0.016-0.016,0.032-0.024c0.04-0.032,0.072-0.056,0.112-0.088c0.008-0.008,0.024-0.016,0.032-0.024
	c0.024-0.016,0.04-0.024,0.064-0.048c0.016-0.008,0.024-0.016,0.04-0.024c0.032-0.024,0.072-0.056,0.104-0.08
	c0.016-0.008,0.024-0.016,0.04-0.024c0.024-0.016,0.056-0.04,0.08-0.064c0.024-0.016,0.04-0.032,0.064-0.048
	c0.016-0.016,0.032-0.024,0.056-0.04c0.024-0.016,0.04-0.032,0.064-0.048s0.048-0.032,0.072-0.056
	c0.024-0.016,0.04-0.032,0.056-0.048s0.032-0.024,0.048-0.04c0.032-0.024,0.056-0.048,0.088-0.064
	c0.016-0.016,0.024-0.024,0.048-0.032c0.024-0.016,0.048-0.032,0.064-0.048s0.032-0.024,0.048-0.04
	c0.032-0.024,0.056-0.04,0.088-0.064c0.016-0.008,0.024-0.016,0.04-0.024c0.032-0.024,0.064-0.048,0.096-0.072
	c0.016-0.008,0.032-0.024,0.04-0.032c0.024-0.016,0.048-0.032,0.072-0.048c0.016-0.008,0.024-0.016,0.04-0.032
	c0.032-0.024,0.064-0.048,0.096-0.072c0.016-0.008,0.032-0.024,0.04-0.032c0.032-0.024,0.056-0.04,0.088-0.064
	c0.016-0.008,0.024-0.016,0.04-0.024c0.024-0.024,0.056-0.04,0.08-0.064c0.016-0.008,0.024-0.016,0.04-0.032
	c0.032-0.024,0.064-0.048,0.096-0.072c0.008-0.008,0.032-0.024,0.04-0.024c0.024-0.024,0.056-0.04,0.08-0.064
	c0.008-0.008,0.024-0.016,0.032-0.024c0.032-0.024,0.064-0.048,0.096-0.072c0.016-0.008,0.024-0.016,0.04-0.032
	c0.032-0.024,0.064-0.048,0.096-0.072c0.016-0.008,0.016-0.016,0.032-0.024c0.032-0.024,0.056-0.04,0.088-0.064
	c0.016-0.008,0.008-0.008,0.024-0.016c0.032-0.024,0.072-0.056,0.104-0.08c0.016-0.008,0.016-0.008,0.024-0.024
	c0.04-0.024,0.072-0.056,0.112-0.08l0,0c0.032-0.024,0.072-0.056,0.104-0.08c0.008-0.008,0.016-0.008,0.024-0.016
	c0.04-0.024,0.072-0.056,0.112-0.08c0.008-0.008,0.016-0.008,0.016-0.016c0.04-0.032,0.072-0.056,0.112-0.088l0,0
	c0.04-0.032,0.08-0.056,0.112-0.088c0.008-0.008,0.008-0.008,0.016-0.016c0.04-0.032,0.072-0.056,0.112-0.088l0.016-0.008
	c0.04-0.032,0.072-0.056,0.112-0.088l0,0c0.04-0.032,0.08-0.064,0.12-0.088l0.008-0.008c0.08-0.064,0.16-0.12,0.24-0.184
	l0.008-0.008c0.04-0.032,0.08-0.064,0.12-0.088c0.008-0.008,0,0,0.008-0.008c0.08-0.064,0.16-0.128,0.24-0.184l0,0
	c0.04-0.032,0.08-0.064,0.12-0.096l0,0c4.288-3.312,8.472-6.76,12.536-10.328c0.008-0.008,0,0,0,0c0.08-0.064,0.152-0.136,0.232-0.2
	c0.008-0.008,0,0,0.008-0.008c0.04-0.032,0.08-0.064,0.112-0.104l0,0c0.08-0.064,0.152-0.136,0.232-0.2l0.008-0.008
	c0.072-0.064,0.144-0.128,0.224-0.192l0.016-0.008c0.032-0.032,0.072-0.064,0.104-0.096c0,0,0.016-0.008,0.016-0.016
	c0.072-0.064,0.144-0.128,0.208-0.184c0.008-0.008,0.016-0.016,0.024-0.024c0.032-0.032,0.064-0.056,0.104-0.088
	c0,0,0.016-0.008,0.016-0.016c0.032-0.024,0.056-0.056,0.088-0.08c0.008-0.008,0.016-0.016,0.024-0.016
	c0.032-0.032,0.064-0.056,0.096-0.088c0.008-0.008,0.008-0.008,0.024-0.024c0.032-0.032,0.064-0.056,0.096-0.088
	c0.008-0.008,0.016-0.008,0.024-0.024c0.024-0.024,0.048-0.048,0.08-0.072c0.016-0.008,0.024-0.016,0.032-0.032
	c0.032-0.024,0.056-0.056,0.088-0.08c0.008-0.008,0.024-0.024,0.04-0.032c0.024-0.024,0.048-0.04,0.072-0.064
	c0.008-0.008,0.032-0.032,0.048-0.04c0.024-0.024,0.048-0.04,0.072-0.064c0.008-0.008,0.024-0.024,0.04-0.032
	c0.032-0.024,0.056-0.056,0.088-0.08c0.016-0.016,0.024-0.024,0.04-0.04c0.016-0.016,0.04-0.032,0.056-0.048s0.04-0.04,0.064-0.056
	s0.04-0.04,0.064-0.056c0.008-0.008,0.032-0.032,0.048-0.04c0.024-0.016,0.04-0.032,0.056-0.056c0.024-0.024,0.048-0.04,0.072-0.064
	c0.016-0.016,0.032-0.032,0.048-0.04c0.016-0.016,0.032-0.032,0.048-0.048c0.024-0.024,0.048-0.048,0.072-0.064
	c0.016-0.016,0.04-0.04,0.056-0.056c0.008-0.008,0.024-0.024,0.032-0.032c0.032-0.032,0.056-0.056,0.096-0.088
	c0.016-0.008,0.024-0.024,0.04-0.032c0.056-0.056,0.128-0.12,0.192-0.168c0.008-0.008,0.016-0.016,0.032-0.024
	c0.032-0.032,0.08-0.072,0.112-0.104c0.008-0.008,0.008-0.008,0.016-0.016c0.024-0.024,0.04-0.04,0.064-0.064l0.008-0.008
	c0.048-0.04,0.08-0.072,0.128-0.12l0.008-0.008c1.6-1.456,3.168-2.92,4.728-4.416L411.004,417.72L411.004,417.72z M453.276,362.232
	c-5.52,10.232-11.904,20.112-18.96,29.384l25.456,19.392c0.032-0.04,0.064-0.08,0.088-0.12c0.008-0.008,0,0,0.008-0.008
	c0.032-0.04,0.056-0.08,0.088-0.12c0.008-0.008,0-0.008,0.008-0.008c0.056-0.08,0.12-0.152,0.176-0.232
	c0.008-0.008,0.008-0.008,0.016-0.016c0.056-0.08,0.12-0.152,0.176-0.232l0.008-0.016c0.024-0.04,0.056-0.072,0.08-0.112
	c0,0,0.008-0.016,0.016-0.024c0.024-0.032,0.056-0.072,0.08-0.104c0,0,0.008-0.008,0.016-0.016c0.024-0.032,0.048-0.064,0.072-0.096
	c0.008-0.008,0.016-0.016,0.016-0.024c0.024-0.04,0.056-0.072,0.08-0.112c0.008-0.008,0.008-0.008,0.016-0.016
	c0.024-0.032,0.048-0.064,0.08-0.104c0.008-0.008,0.008-0.008,0.008-0.016c0.024-0.032,0.056-0.072,0.08-0.104
	c0.008-0.016,0.008-0.016,0.024-0.032c0.024-0.032,0.056-0.072,0.08-0.104c0.008-0.008,0.008-0.016,0.016-0.024
	c0.024-0.032,0.048-0.064,0.064-0.088c0,0,0.016-0.024,0.024-0.032c0.024-0.032,0.048-0.072,0.08-0.104
	c0.008-0.008,0.016-0.024,0.024-0.024c0.024-0.032,0.04-0.056,0.064-0.088c0.008-0.016,0.024-0.032,0.032-0.04
	c0.024-0.024,0.04-0.056,0.064-0.08c0.008-0.016,0.016-0.024,0.024-0.04c0.024-0.032,0.048-0.064,0.072-0.096
	c0.008-0.016,0.016-0.024,0.032-0.04c0.016-0.024,0.04-0.048,0.056-0.072c0.008-0.016,0.016-0.024,0.024-0.04
	c0.024-0.032,0.048-0.064,0.072-0.096c0.008-0.016,0.024-0.032,0.032-0.048c0.016-0.024,0.04-0.048,0.056-0.08
	c0.016-0.016,0.024-0.032,0.04-0.056c0.016-0.024,0.032-0.04,0.048-0.064c0.016-0.016,0.024-0.024,0.032-0.048
	c0.024-0.032,0.04-0.056,0.064-0.088c0.016-0.016,0.024-0.032,0.04-0.048c0.016-0.016,0.024-0.04,0.04-0.056
	c0.016-0.024,0.032-0.048,0.056-0.072c0.016-0.024,0.032-0.04,0.048-0.064c0.008-0.016,0.024-0.032,0.032-0.048
	c0.024-0.024,0.04-0.056,0.056-0.08c0.016-0.016,0.032-0.04,0.04-0.056c0.016-0.016,0.024-0.032,0.04-0.048
	c0.016-0.016,0.032-0.04,0.048-0.064s0.04-0.048,0.056-0.072c0.016-0.016,0.024-0.04,0.04-0.056c0.016-0.016,0.024-0.04,0.04-0.056
	c0.016-0.024,0.04-0.056,0.056-0.08c0.016-0.016,0.024-0.04,0.04-0.056c0.016-0.016,0.024-0.04,0.04-0.056
	c0.016-0.024,0.04-0.056,0.056-0.08c0.016-0.016,0.032-0.04,0.04-0.064c0.008-0.016,0.016-0.024,0.032-0.04
	c0.024-0.032,0.048-0.072,0.072-0.104c0.008-0.016,0.016-0.024,0.024-0.04c0.016-0.024,0.024-0.04,0.048-0.064
	c0.008-0.016,0.024-0.032,0.032-0.04c0.024-0.032,0.048-0.064,0.064-0.096c0.016-0.016,0.024-0.032,0.032-0.048
	c0.024-0.032,0.048-0.064,0.072-0.096c0.008-0.016,0.016-0.024,0.032-0.04c0.016-0.024,0.032-0.04,0.048-0.064
	c0.008-0.008,0.016-0.024,0.024-0.032c0.032-0.04,0.048-0.072,0.08-0.112c0.008-0.008,0.016-0.024,0.024-0.032
	c0.016-0.024,0.032-0.04,0.048-0.064c0,0,0-0.008,0.008-0.008c0.032-0.048,0.064-0.088,0.096-0.136
	c0.008-0.008,0.016-0.024,0.024-0.032c0.032-0.04,0.064-0.088,0.088-0.12c0.008-0.008,0.008-0.016,0.016-0.016
	c0.016-0.024,0.032-0.048,0.056-0.072l0.008-0.008c0.032-0.048,0.064-0.088,0.096-0.136c0.008-0.008,0.008-0.016,0.016-0.024
	c0.056-0.08,0.096-0.136,0.152-0.216c0.008-0.008,0.016-0.016,0.024-0.032c0.024-0.04,0.064-0.08,0.088-0.12
	c0.008-0.008,0.008-0.016,0.016-0.016c0.056-0.08,0.104-0.144,0.16-0.224l0.008-0.008c0.056-0.08,0.104-0.152,0.16-0.224
	l0.008-0.008c0.04-0.056,0.064-0.088,0.104-0.144c0-0.008,0.008-0.008,0.008-0.016c0.056-0.08,0.104-0.144,0.16-0.224l0.008-0.008
	c0.04-0.056,0.064-0.088,0.104-0.144c0-0.008,0.008-0.008,0.008-0.008c0.024-0.032,0.04-0.056,0.056-0.08l0,0
	c0.04-0.056,0.064-0.096,0.104-0.144c0,0,0.008-0.008,0.008-0.016c0.096-0.128,0.184-0.256,0.272-0.384l0,0
	c0.24-0.344,0.48-0.68,0.72-1.016l0,0c0.152-0.216,0.296-0.416,0.44-0.632l0,0c0.296-0.424,0.584-0.84,0.872-1.264l0,0
	c0.24-0.344,0.472-0.688,0.704-1.032v-0.008c0.088-0.136,0.176-0.256,0.264-0.392v-0.008c0.144-0.216,0.288-0.424,0.432-0.632l0,0
	c0.32-0.48,0.64-0.96,0.96-1.44c0,0,0,0,0-0.008c0.144-0.216,0.28-0.424,0.424-0.64v-0.008c0.6-0.912,1.192-1.824,1.784-2.744l0,0
	c3.416-5.336,6.632-10.792,9.648-16.384L453.276,362.232L453.276,362.232z M476.364,296.52c-2.088,11.44-5.104,22.8-8.952,33.76
	l30.192,10.608c0.96-2.728,1.872-5.472,2.736-8.24v-0.008c0.032-0.096,0.064-0.192,0.088-0.288c0-0.008,0,0,0-0.008
	c0.032-0.096,0.056-0.192,0.088-0.288l0.008-0.016c0.016-0.048,0.024-0.088,0.04-0.136c0-0.008,0.008-0.016,0.008-0.024
	c0.016-0.04,0.024-0.08,0.04-0.12c0-0.008,0-0.008,0.008-0.016c0.016-0.04,0.024-0.08,0.04-0.128
	c0.008-0.016,0.008-0.024,0.016-0.04c0.008-0.032,0.024-0.072,0.032-0.104c0.008-0.024,0.008-0.032,0.016-0.056
	s0.016-0.056,0.024-0.08s0.008-0.032,0.016-0.056c0.008-0.032,0.024-0.072,0.032-0.104c0.008-0.024,0.008-0.032,0.016-0.056
	s0.016-0.048,0.024-0.064s0.016-0.04,0.016-0.056c0.008-0.032,0.024-0.072,0.032-0.104c0.008-0.024,0.016-0.04,0.024-0.064
	s0.016-0.04,0.016-0.064c0.008-0.032,0.024-0.072,0.032-0.104c0.008-0.024,0.016-0.04,0.016-0.064
	c0.008-0.024,0.016-0.048,0.024-0.072c0.008-0.016,0.008-0.032,0.016-0.04c0.016-0.04,0.032-0.096,0.04-0.136
	c0-0.008,0.008-0.024,0.008-0.032c0.024-0.088,0.056-0.176,0.08-0.256c0-0.008,0.008-0.016,0.008-0.024
	c0.016-0.056,0.032-0.112,0.048-0.168c0,0,0,0,0-0.008c1.552-5.152,2.944-10.376,4.168-15.664v-0.008
	c0.024-0.096,0.04-0.184,0.064-0.28c0-0.008,0-0.008,0-0.008c0.016-0.064,0.024-0.12,0.04-0.176c0,0,0-0.016,0.008-0.016
	c0.008-0.032,0.016-0.056,0.024-0.088c0-0.008,0-0.016,0.008-0.024c0.008-0.048,0.024-0.112,0.04-0.16
	c0-0.008,0.008-0.016,0.008-0.024c0.024-0.088,0.04-0.168,0.056-0.256c0-0.016,0.008-0.032,0.008-0.04
	c0.008-0.04,0.016-0.088,0.032-0.128c0-0.016,0.008-0.032,0.008-0.048c0.008-0.024,0.016-0.056,0.016-0.08
	c0-0.016,0.008-0.032,0.008-0.048c0.008-0.04,0.016-0.08,0.024-0.12c0.008-0.016,0.008-0.04,0.016-0.056
	c0-0.016,0.016-0.056,0.016-0.072c0.008-0.024,0.016-0.056,0.016-0.08c0.008-0.024,0.016-0.056,0.016-0.08
	c0.008-0.024,0.008-0.048,0.016-0.072s0.008-0.032,0.016-0.056c0.008-0.04,0.016-0.072,0.024-0.112
	c0.008-0.024,0.008-0.032,0.016-0.056s0.008-0.048,0.016-0.08c0-0.016,0.008-0.032,0.008-0.056c0.008-0.04,0.016-0.08,0.024-0.12
	c0-0.016,0.008-0.024,0.008-0.04c0.008-0.04,0.016-0.072,0.024-0.112c0-0.016,0-0.016,0.008-0.032c0.008-0.04,0.016-0.08,0.024-0.12
	c0-0.008,0.008-0.024,0.008-0.032c0.008-0.048,0.016-0.088,0.032-0.136c0-0.008,0-0.008,0.008-0.016
	c0.008-0.04,0.016-0.08,0.024-0.12c0-0.008,0-0.016,0.008-0.024c0.008-0.048,0.024-0.096,0.032-0.136c0-0.008,0-0.008,0-0.016
	c0.024-0.096,0.04-0.2,0.064-0.296v-0.008c0.024-0.104,0.04-0.2,0.064-0.304l0,0c0.584-2.712,1.136-5.44,1.632-8.192L476.364,296.52
	L476.364,296.52z M509.852,222.6l-31.728,4.136c1.248,9.632,1.888,19.472,1.888,29.264c0,1.912-0.024,3.816-0.072,5.712l31.992,0.8
	c0.016-0.72,0.032-1.448,0.048-2.168v-0.008c0-0.032,0-0.056,0-0.088v-0.016c0-0.032,0-0.048,0-0.08c0-0.008,0-0.016,0-0.024
	c0-0.024,0-0.048,0-0.08c0-0.008,0-0.016,0-0.024c0-0.016,0-0.048,0-0.072c0-0.016,0-0.024,0-0.04c0-0.016,0-0.04,0-0.064
	c0-0.016,0-0.032,0-0.048s0-0.04,0-0.056s0-0.032,0-0.048s0-0.032,0-0.048s0-0.04,0-0.056s0-0.024,0-0.04c0-0.024,0-0.04,0-0.064
	c0-0.016,0-0.024,0-0.04c0-0.024,0-0.04,0-0.064c0-0.016,0-0.016,0-0.032c0-0.024,0-0.048,0-0.072c0-0.016,0-0.016,0-0.032
	c0-0.024,0-0.048,0-0.072c0-0.008,0-0.024,0-0.032c0-0.024,0-0.048,0-0.072c0-0.016,0-0.024,0-0.04c0-0.024,0-0.048,0-0.064
	c0-0.008,0-0.024,0-0.032c0-0.024,0-0.048,0-0.072c0-0.016,0-0.024,0-0.04c0-0.024,0-0.04,0-0.064c0-0.008,0-0.024,0-0.032
	c0-0.024,0-0.048,0-0.072c0-0.008,0-0.016,0-0.032c0-0.024,0-0.048,0-0.08c0-0.008,0-0.016,0-0.024c0-0.024,0-0.056,0-0.08
	c0-0.008,0-0.016,0-0.024c0-0.024,0-0.048,0-0.08c0-0.008,0-0.016,0-0.024c0-0.024,0-0.056,0-0.08c0-0.008,0-0.008,0-0.016
	c0-0.032,0-0.056,0-0.088c0-0.008,0-0.008,0-0.016c0-0.024,0-0.056,0-0.08c0-0.008,0-0.016,0-0.024c0-0.024,0-0.048,0-0.08
	c0-0.008,0-0.016,0-0.024c0-0.024,0-0.048,0-0.072c0-0.008,0-0.024,0-0.032c0-0.024,0-0.048,0-0.064c0-0.008,0-0.024,0-0.032
	c0-0.024,0-0.048,0-0.072c0-0.008,0-0.016,0-0.032c0-0.024,0-0.048,0-0.072c0-0.008,0-0.024,0-0.032c0-0.024,0-0.048,0-0.072
	c0-0.008,0-0.024,0-0.032c0-0.024,0-0.048,0-0.064c0-0.008,0-0.024,0-0.032c0-0.024,0-0.048,0-0.072c0-0.016,0-0.016,0-0.032
	c0-0.024,0-0.048,0-0.064s0-0.032,0-0.048s0-0.032,0-0.056s0-0.04,0-0.064c0-0.016,0-0.024,0-0.04c0-0.016,0-0.04,0-0.056
	s0-0.032,0-0.048s0-0.032,0-0.048s0-0.04,0-0.056s0-0.04,0-0.056s0-0.032,0-0.048c0-0.032,0-0.056,0-0.088v-0.008
	c0-0.032,0-0.056,0-0.08c0-0.008,0-0.016,0-0.024c0-0.024,0-0.048,0-0.08c0-0.008,0-0.016,0-0.024c0-0.032,0-0.064,0-0.096V256.2
	c0-0.072,0-0.136,0-0.208l0,0l0,0c0-0.04,0-0.08,0-0.12c0-0.008,0-0.032,0-0.04c0-0.024,0-0.056,0-0.08c0-0.016,0-0.032,0-0.048
	c0-0.032,0-0.064,0-0.088c0-0.016,0-0.008,0-0.032c0-0.04,0-0.08,0-0.12c0-0.016,0-0.024,0-0.04c0-0.024,0-0.056,0-0.08
	c0-0.016,0-0.024,0-0.04c0-0.024,0-0.056,0-0.08c0-0.008,0-0.032,0-0.04c0-0.032,0-0.064,0-0.096c0-0.008,0-0.032,0-0.04
	c0-0.032,0-0.072,0-0.104c0-0.016,0-0.024,0-0.04c0-0.024,0-0.056,0-0.08c0-0.016,0-0.024,0-0.04c0-0.032,0-0.064,0-0.096
	c0-0.016,0-0.016,0-0.032c0-0.04,0-0.08,0-0.12c0-0.008,0,0,0-0.016c0-0.032,0-0.072,0-0.112c0-0.008,0-0.024,0-0.032
	c0-0.032,0-0.056,0-0.088c0-0.008,0-0.032,0-0.04c0-0.032,0-0.064,0-0.096c0-0.008,0-0.016,0-0.024c0-0.04,0-0.08,0-0.12
	c0-0.016,0-0.016,0-0.032c0-0.032,0-0.056,0-0.088c0-0.016,0-0.024,0-0.048c0-0.032,0-0.056,0-0.088c0-0.008,0-0.024,0-0.032
	c0-0.04,0-0.08,0-0.12c0-0.008,0-0.008,0-0.016c0-0.032,0-0.072,0-0.104c0-0.008,0-0.024,0-0.032c0-0.032,0-0.056,0-0.088
	c0-0.008,0-0.032,0-0.04c0-0.032,0-0.064,0-0.104c0-0.008,0-0.008,0-0.016c0-0.04,0-0.08,0-0.12v-0.024c0-0.032,0-0.064,0-0.096
	c0-0.016,0-0.016,0-0.04c0-0.032,0-0.064,0-0.096c0-0.008,0-0.024,0-0.032c0-0.08,0-0.16,0-0.248c0-0.008,0-0.024,0-0.032
	c0-0.032,0-0.064,0-0.096c0-0.008,0-0.024,0-0.032c0-0.032,0-0.072,0-0.104c0-0.008,0-0.008,0-0.016c0-0.04,0-0.088,0-0.128
	c0-0.008,0,0,0-0.008c0-0.04,0-0.072,0-0.112c0-0.008,0-0.016,0-0.024c0-0.032,0-0.072,0-0.104c0-0.008,0-0.008,0-0.016
	c0-0.088,0-0.168-0.008-0.256V251.6c0-0.04,0-0.072,0-0.112c0-0.008,0-0.008,0-0.016c0-0.04,0-0.08,0-0.12v-0.008
	c0-0.04,0-0.088,0-0.128l0,0c0-0.04,0-0.08,0-0.128c0-0.008,0-0.008,0-0.016c0-0.04,0-0.08,0-0.112c0-0.008,0,0,0-0.008
	c0-0.088,0-0.168-0.008-0.256v-0.016c0-0.04,0-0.072,0-0.112v-0.016c0-0.128-0.008-0.256-0.008-0.384c0-0.008,0,0,0-0.008
	c0-0.04,0-0.08,0-0.12c0-0.008,0,0,0-0.008c0-0.128-0.008-0.256-0.008-0.384v-0.008c-0.008-0.176-0.008-0.352-0.016-0.52l0,0
	c-0.184-6.856-0.632-13.64-1.336-20.344v-0.016c0-0.04-0.008-0.08-0.016-0.12l0,0c-0.008-0.08-0.016-0.168-0.024-0.248
	c0-0.008,0-0.008,0-0.016c0-0.032-0.008-0.072-0.008-0.104c0-0.008,0-0.016,0-0.024c0-0.04-0.008-0.072-0.016-0.112v-0.008
	c-0.008-0.04-0.008-0.08-0.016-0.128c0-0.008,0,0,0-0.008c0-0.032-0.008-0.072-0.008-0.104c0-0.008,0-0.024,0-0.032
	c0-0.024-0.008-0.056-0.008-0.08c0-0.008,0-0.04-0.008-0.048c0-0.032-0.008-0.056-0.008-0.088c0-0.008,0-0.032,0-0.04
	c0-0.032-0.008-0.064-0.008-0.104c0-0.016,0-0.032-0.008-0.048c0-0.024-0.008-0.04-0.008-0.064c0-0.016-0.008-0.04-0.008-0.056
	s0-0.04-0.008-0.056c0-0.024,0-0.032-0.008-0.064c0-0.016,0-0.032-0.008-0.048c-0.008-0.04-0.008-0.088-0.016-0.128
	c0-0.016,0-0.024,0-0.04c0-0.024-0.008-0.048-0.008-0.08c0-0.008,0-0.024,0-0.032c0-0.024-0.008-0.056-0.008-0.08
	c0-0.008,0-0.016,0-0.016c-0.008-0.064-0.016-0.128-0.024-0.184c0,0,0,0,0-0.008c0-0.024-0.008-0.056-0.008-0.08
	c0-0.008,0-0.016,0-0.024c0-0.032-0.008-0.048-0.008-0.088c0-0.008,0-0.016,0-0.016C510.172,225.12,510.02,223.872,509.852,222.6
	L509.852,222.6z M487.324,146.184l-28.896,13.744c5,10.504,9.192,21.48,12.48,32.624l30.696-9.048
	C497.804,170.608,493.012,158.144,487.324,146.184L487.324,146.184z M442.324,80.432l-23.288,21.952
	c7.992,8.48,15.376,17.648,21.952,27.248l26.4-18.08c-1.456-2.128-2.944-4.224-4.464-6.312c-0.008-0.008-0.008-0.008-0.016-0.016
	c-0.032-0.048-0.064-0.088-0.096-0.136c0-0.008-0.008-0.008-0.008-0.008c-0.024-0.032-0.032-0.048-0.056-0.072
	c-0.008-0.008-0.016-0.016-0.024-0.032c-0.032-0.04-0.056-0.072-0.08-0.112c-0.008-0.008-0.016-0.024-0.024-0.032
	c-0.016-0.024-0.048-0.064-0.064-0.088c-0.016-0.016-0.024-0.032-0.04-0.056c-0.016-0.016-0.032-0.04-0.048-0.064
	c-0.008-0.016-0.024-0.032-0.032-0.048c-0.016-0.024-0.048-0.064-0.064-0.088c-0.008-0.016-0.024-0.032-0.032-0.048
	c-0.016-0.016-0.032-0.04-0.048-0.064s-0.032-0.04-0.048-0.064s-0.04-0.048-0.056-0.072c-0.016-0.016-0.024-0.032-0.04-0.056
	c-0.016-0.016-0.032-0.048-0.048-0.064c-0.016-0.024-0.04-0.048-0.056-0.072c-0.008-0.016-0.024-0.032-0.032-0.048
	c-0.016-0.024-0.032-0.048-0.048-0.064c-0.016-0.016-0.04-0.048-0.048-0.072c-0.016-0.024-0.032-0.04-0.048-0.056
	s-0.016-0.024-0.032-0.048c-0.024-0.032-0.04-0.056-0.064-0.088c-0.016-0.016-0.024-0.032-0.04-0.048
	c-0.016-0.024-0.032-0.048-0.056-0.072c-0.008-0.016-0.032-0.04-0.04-0.048c-0.016-0.024-0.04-0.048-0.056-0.08
	c-0.008-0.016-0.024-0.032-0.032-0.04c-0.024-0.032-0.048-0.064-0.072-0.096c-0.008-0.016-0.016-0.016-0.024-0.032
	c-0.024-0.032-0.04-0.056-0.064-0.088c-0.008-0.008-0.008-0.016-0.016-0.024c-0.024-0.032-0.056-0.072-0.08-0.104
	c-0.008-0.016-0.008-0.016-0.024-0.032c-0.024-0.032-0.056-0.072-0.08-0.104c-0.008-0.008-0.008-0.008-0.008-0.016
	c-0.024-0.04-0.056-0.072-0.08-0.112l-0.008-0.008c-0.032-0.04-0.056-0.072-0.088-0.112c-0.008-0.008-0.008-0.016-0.016-0.016
	c-0.056-0.072-0.112-0.152-0.168-0.224c-0.008-0.008-0.008-0.016-0.016-0.016c-0.032-0.04-0.056-0.08-0.088-0.112l-0.008-0.008
	c-0.064-0.08-0.12-0.16-0.184-0.24l-0.008-0.008c-0.152-0.208-0.312-0.416-0.464-0.616l0,0
	C454.532,94.096,448.604,87.096,442.324,80.432L442.324,80.432z M379.348,31.616l-15.44,28.032
	c10.184,5.608,20.016,12.072,29.224,19.216l19.608-25.288c-0.592-0.464-1.192-0.92-1.792-1.376l0,0
	c-0.08-0.056-0.152-0.112-0.224-0.176c0,0,0,0-0.008-0.008c-0.048-0.032-0.088-0.072-0.136-0.104
	c-0.008-0.008-0.016-0.008-0.024-0.016c-0.072-0.056-0.144-0.104-0.208-0.16c-0.008-0.008-0.016-0.016-0.024-0.024
	c-0.04-0.032-0.08-0.064-0.12-0.088c-0.008-0.008-0.016-0.016-0.024-0.024c-0.024-0.016-0.04-0.032-0.064-0.048
	c-0.016-0.008-0.032-0.024-0.04-0.032c-0.032-0.024-0.064-0.048-0.096-0.072c-0.016-0.008-0.024-0.024-0.04-0.032
	c-0.024-0.016-0.056-0.04-0.08-0.064c-0.016-0.016-0.04-0.032-0.056-0.04c-0.016-0.016-0.04-0.032-0.056-0.048
	c-0.016-0.008-0.032-0.024-0.04-0.032c-0.024-0.016-0.064-0.048-0.088-0.064c-0.016-0.016-0.032-0.024-0.048-0.04
	c-0.016-0.016-0.032-0.024-0.048-0.04c-0.032-0.024-0.056-0.04-0.088-0.064c-0.016-0.016-0.032-0.024-0.048-0.04
	c-0.024-0.016-0.04-0.032-0.056-0.048s-0.032-0.024-0.056-0.04c-0.024-0.024-0.056-0.04-0.08-0.064
	c-0.016-0.008-0.032-0.024-0.04-0.032c-0.024-0.016-0.056-0.04-0.08-0.056c-0.016-0.016-0.032-0.024-0.056-0.04
	c-0.024-0.016-0.04-0.032-0.064-0.048c-0.016-0.016-0.024-0.016-0.04-0.032c-0.032-0.024-0.056-0.048-0.088-0.064
	c-0.016-0.016-0.032-0.024-0.048-0.04c-0.024-0.016-0.048-0.032-0.064-0.048s-0.032-0.024-0.056-0.04
	c-0.024-0.016-0.048-0.04-0.08-0.056c-0.016-0.008-0.032-0.024-0.04-0.032c-0.032-0.024-0.064-0.048-0.096-0.072
	c-0.016-0.008-0.024-0.016-0.04-0.032c-0.024-0.016-0.048-0.04-0.072-0.056c-0.016-0.008-0.024-0.016-0.032-0.024
	c-0.032-0.024-0.064-0.048-0.096-0.072c-0.016-0.008-0.024-0.016-0.04-0.024c-0.032-0.024-0.064-0.048-0.096-0.072
	c-0.008-0.008-0.016-0.016-0.024-0.016c-0.032-0.024-0.064-0.048-0.088-0.064c-0.008-0.008-0.024-0.016-0.032-0.024
	c-0.032-0.024-0.064-0.048-0.104-0.072c-0.008-0.008-0.024-0.024-0.032-0.024c-0.032-0.024-0.064-0.048-0.088-0.064
	c-0.008-0.008-0.008-0.008-0.016-0.016c-0.032-0.024-0.072-0.056-0.104-0.08c-0.016-0.008-0.016-0.008-0.032-0.024
	c-0.032-0.024-0.072-0.056-0.104-0.08c-0.008-0.008-0.008-0.008-0.016-0.016c-0.032-0.024-0.064-0.048-0.096-0.072
	c-0.016-0.008-0.008-0.008-0.024-0.016c-0.032-0.024-0.072-0.056-0.104-0.08c-0.008-0.008-0.016-0.016-0.024-0.016
	c-0.04-0.024-0.072-0.056-0.112-0.08h-0.008c-0.04-0.024-0.072-0.056-0.112-0.08c-0.008-0.008-0.016-0.008-0.016-0.016
	c-0.04-0.024-0.072-0.056-0.104-0.08c-0.008-0.008-0.016-0.016-0.024-0.016c-0.032-0.024-0.072-0.048-0.104-0.072
	c-0.008-0.008,0,0-0.008-0.008c-0.04-0.024-0.072-0.056-0.112-0.08c-0.016-0.008-0.016-0.008-0.024-0.016
	c-0.04-0.024-0.072-0.056-0.112-0.08c-0.008-0.008-0.008,0-0.008-0.008c-0.032-0.024-0.072-0.048-0.104-0.08
	c-0.008-0.008-0.016-0.008-0.016-0.016c-0.04-0.024-0.072-0.056-0.112-0.08c-0.008-0.008-0.016-0.008-0.016-0.016
	c-0.04-0.032-0.08-0.056-0.112-0.08l0,0c-0.04-0.024-0.072-0.056-0.112-0.08c-0.008-0.008-0.016-0.008-0.024-0.016
	c-0.04-0.024-0.072-0.056-0.112-0.08c-0.008-0.008-0.016-0.008-0.024-0.016c-0.032-0.024-0.072-0.048-0.104-0.072
	c0,0,0,0-0.008-0.008c-0.04-0.024-0.072-0.056-0.112-0.08c-0.008-0.008-0.016-0.008-0.016-0.016c-0.04-0.024-0.08-0.056-0.112-0.08
	c-0.008-0.008,0,0-0.008-0.008c-0.032-0.024-0.072-0.048-0.104-0.072c-0.008-0.008-0.016-0.016-0.024-0.016
	c-0.032-0.024-0.072-0.048-0.104-0.08c-0.008-0.008-0.016-0.008-0.024-0.016c-0.04-0.024-0.072-0.056-0.112-0.08l0,0
	c-0.04-0.024-0.072-0.056-0.112-0.08c-0.008-0.008-0.016-0.016-0.024-0.016c-0.032-0.024-0.072-0.048-0.104-0.08
	c-0.104-0.016-0.104-0.016-0.12-0.024c-0.032-0.024-0.064-0.048-0.096-0.072c-0.008-0.008-0.008-0.008-0.016-0.008
	c-0.04-0.024-0.072-0.056-0.112-0.08c-0.016-0.008-0.008-0.008-0.024-0.016c-0.04-0.024-0.072-0.056-0.112-0.08
	c-0.008-0.008,0,0-0.008-0.008c-0.04-0.024-0.072-0.056-0.112-0.08c-0.008-0.008-0.008-0.008-0.016-0.016
	c-0.04-0.024-0.072-0.056-0.112-0.08c-0.008-0.008-0.016-0.008-0.024-0.016c-0.032-0.024-0.072-0.048-0.104-0.072
	c-0.008-0.008-0.008,0-0.008-0.008c-0.04-0.024-0.072-0.056-0.112-0.08c-0.008-0.008-0.016-0.016-0.024-0.016
	c-0.032-0.024-0.072-0.048-0.104-0.08c-0.016-0.008-0.008-0.008-0.024-0.016c-0.032-0.024-0.064-0.048-0.096-0.072
	c-0.008-0.008-0.008-0.008-0.016-0.016c-0.04-0.024-0.072-0.048-0.112-0.08c-0.016-0.008-0.016-0.008-0.032-0.024
	c-0.032-0.024-0.072-0.048-0.104-0.072c-0.008-0.008-0.008-0.008-0.016-0.016c-0.032-0.024-0.064-0.048-0.096-0.064
	c-0.008-0.008-0.024-0.016-0.032-0.024c-0.032-0.024-0.072-0.048-0.104-0.072c-0.008-0.008-0.016-0.016-0.024-0.016
	c-0.032-0.024-0.064-0.048-0.104-0.072c-0.008-0.008-0.008-0.008-0.016-0.008c-0.032-0.024-0.072-0.048-0.104-0.072
	c-0.016-0.008-0.024-0.016-0.032-0.024c-0.032-0.024-0.072-0.048-0.104-0.072c-0.016-0.008-0.016-0.016-0.032-0.024
	c-0.032-0.024-0.056-0.04-0.088-0.056c-0.016-0.008-0.024-0.008-0.032-0.016c-0.032-0.024-0.064-0.048-0.104-0.072
	c-0.016-0.008-0.024-0.016-0.04-0.024c-0.032-0.024-0.072-0.048-0.104-0.072c-0.008-0.008-0.008-0.008-0.016-0.008
	c-0.032-0.024-0.064-0.048-0.096-0.064c-0.008-0.008-0.032-0.024-0.032-0.024c-0.032-0.024-0.072-0.048-0.104-0.072
	c-0.008-0.008-0.024-0.016-0.032-0.024c-0.032-0.024-0.056-0.04-0.088-0.064c-0.008-0.008-0.024-0.016-0.024-0.016
	c-0.032-0.032-0.072-0.056-0.104-0.08c-0.016-0.008-0.024-0.016-0.032-0.024c-0.032-0.024-0.072-0.048-0.104-0.072
	c-0.016-0.008-0.016-0.016-0.032-0.024c-0.032-0.016-0.056-0.04-0.08-0.056c-0.016-0.008-0.024-0.016-0.032-0.024
	c-0.032-0.024-0.064-0.048-0.096-0.072c-0.016-0.008-0.024-0.016-0.04-0.024c-0.024-0.016-0.056-0.04-0.08-0.056
	c-0.016-0.008-0.032-0.024-0.048-0.032c-0.024-0.016-0.048-0.032-0.072-0.056c-0.024-0.016-0.032-0.016-0.048-0.032
	c-0.032-0.024-0.064-0.04-0.096-0.064c-0.024-0.016-0.024-0.016-0.048-0.032c-0.024-0.016-0.04-0.032-0.064-0.04
	c-0.024-0.016-0.056-0.04-0.072-0.048c-0.024-0.016-0.04-0.032-0.064-0.04c-0.016-0.008-0.04-0.032-0.056-0.04
	c-0.024-0.016-0.048-0.032-0.064-0.04c-0.032-0.024-0.048-0.032-0.08-0.056c-0.016-0.016-0.032-0.024-0.056-0.04
	c-0.016-0.016-0.032-0.024-0.056-0.04c-0.032-0.024-0.056-0.04-0.088-0.064c-0.024-0.016-0.032-0.024-0.048-0.032
	c-0.024-0.016-0.04-0.032-0.064-0.04c-0.024-0.016-0.048-0.032-0.072-0.048c-0.016-0.016-0.04-0.024-0.056-0.04
	c-0.024-0.016-0.032-0.024-0.056-0.04c-0.024-0.016-0.04-0.032-0.064-0.048c-0.04-0.016-0.064-0.032-0.088-0.056
	c-0.016-0.008-0.032-0.024-0.048-0.032c-0.032-0.024-0.056-0.04-0.088-0.064c-0.016-0.016-0.04-0.024-0.056-0.04
	c-0.024-0.016-0.04-0.024-0.056-0.04c-0.016-0.008-0.032-0.024-0.048-0.032c-0.032-0.024-0.072-0.048-0.104-0.072
	c-0.016-0.008-0.024-0.016-0.04-0.024c-0.024-0.016-0.04-0.024-0.064-0.04c-0.032-0.016-0.056-0.04-0.08-0.056
	s-0.04-0.024-0.064-0.04c-0.016-0.008-0.032-0.024-0.048-0.032c-0.024-0.016-0.064-0.04-0.088-0.064
	c-0.016-0.008-0.032-0.024-0.048-0.032c-0.024-0.016-0.04-0.032-0.064-0.04c-0.008-0.008-0.024-0.016-0.032-0.024
	c-0.04-0.024-0.08-0.056-0.12-0.08c-0.008-0.008-0.016-0.016-0.024-0.016c-0.072-0.048-0.152-0.104-0.224-0.152l0,0
	c-0.056-0.04-0.096-0.064-0.152-0.096c-0.008,0-0.008-0.008-0.008-0.008c-0.216-0.144-0.424-0.288-0.64-0.424l0,0
	C391.868,38.864,385.692,35.112,379.348,31.616L379.348,31.616z M304.412,4.568L298.396,36c11.424,2.184,22.752,5.296,33.688,9.24
	l10.864-30.096c-1.232-0.448-2.464-0.88-3.712-1.304c-0.008,0-0.008,0-0.016-0.008c-0.064-0.024-0.104-0.04-0.168-0.056h-0.008
	c-0.032-0.008-0.056-0.016-0.088-0.032h-0.008c-0.056-0.016-0.096-0.032-0.152-0.056c-0.016-0.008-0.024-0.008-0.04-0.016
	c-0.024-0.008-0.048-0.016-0.072-0.024c-0.016-0.008-0.032-0.016-0.056-0.016c-0.04-0.016-0.072-0.024-0.112-0.04
	c-0.016-0.008-0.04-0.016-0.056-0.016c-0.032-0.008-0.064-0.024-0.096-0.032c-0.024-0.008-0.048-0.016-0.072-0.024
	s-0.04-0.016-0.064-0.024s-0.048-0.016-0.072-0.024s-0.04-0.016-0.064-0.024c-0.032-0.008-0.056-0.016-0.088-0.032
	c-0.016-0.008-0.04-0.016-0.056-0.016c-0.04-0.016-0.072-0.024-0.112-0.04c-0.016-0.008-0.024-0.008-0.04-0.016
	c-0.032-0.008-0.056-0.016-0.088-0.032c-0.016-0.008-0.032-0.008-0.048-0.016c-0.04-0.016-0.08-0.024-0.112-0.04
	c-0.008,0-0.032-0.008-0.04-0.016c-0.032-0.008-0.072-0.024-0.104-0.032c-0.008,0-0.016-0.008-0.024-0.008
	c-0.04-0.016-0.08-0.024-0.128-0.04c-0.016-0.008-0.016-0.008-0.032-0.008c-0.04-0.016-0.08-0.024-0.128-0.04
	c-0.008,0-0.016-0.008-0.024-0.008c-0.04-0.016-0.08-0.024-0.112-0.04c-0.008,0-0.016-0.008-0.024-0.008
	c-0.04-0.016-0.088-0.032-0.128-0.04l-0.016-0.008c-0.048-0.016-0.088-0.032-0.136-0.048l0,0c-0.048-0.016-0.096-0.032-0.136-0.048
	c-0.008,0-0.008,0-0.016-0.008c-0.096-0.032-0.184-0.064-0.28-0.096h-0.008c-0.096-0.032-0.192-0.064-0.288-0.096l0,0
	C330.596,10.968,325.212,9.4,319.756,8h-0.016c-0.096-0.024-0.192-0.048-0.288-0.072c-0.008,0-0.008,0-0.016-0.008
	c-0.048-0.008-0.096-0.024-0.136-0.032c-0.008,0-0.008,0-0.016-0.008c-0.04-0.008-0.08-0.024-0.128-0.032
	c-0.008,0-0.016,0-0.024-0.008c-0.048-0.008-0.088-0.024-0.136-0.032c-0.008,0-0.024-0.008-0.032-0.008
	c-0.088-0.024-0.184-0.048-0.272-0.072c-0.008,0-0.024-0.008-0.032-0.008c-0.04-0.008-0.088-0.024-0.128-0.032
	c-0.008,0-0.016-0.008-0.024-0.008c-0.04-0.008-0.08-0.016-0.112-0.032c-0.008,0-0.024-0.008-0.032-0.008
	c-0.04-0.008-0.08-0.024-0.128-0.032c-0.008,0-0.032-0.008-0.04-0.008c-0.032-0.008-0.072-0.016-0.104-0.024
	c-0.008,0-0.024-0.008-0.032-0.008c-0.04-0.008-0.08-0.024-0.12-0.032c-0.016-0.008-0.032-0.008-0.048-0.016
	c-0.032-0.008-0.072-0.016-0.104-0.024c-0.016-0.008-0.032-0.008-0.048-0.008c-0.032-0.008-0.064-0.016-0.096-0.024
	c-0.016-0.008-0.032-0.008-0.048-0.016c-0.04-0.008-0.072-0.016-0.112-0.032c-0.016-0.008-0.04-0.008-0.056-0.016
	c-0.024-0.008-0.048-0.016-0.072-0.016c-0.016,0-0.04-0.008-0.056-0.016c-0.04-0.008-0.072-0.016-0.112-0.024
	c-0.024-0.008-0.04-0.008-0.064-0.016s-0.048-0.008-0.072-0.016c-0.032-0.008-0.064-0.016-0.096-0.024
	c-0.024-0.008-0.048-0.008-0.072-0.016s-0.04-0.008-0.064-0.016c-0.016-0.008-0.04-0.008-0.056-0.016
	c-0.04-0.008-0.08-0.016-0.12-0.032c-0.016,0-0.032-0.008-0.048-0.008c-0.024-0.008-0.056-0.016-0.08-0.016l0,0
	c-0.056-0.016-0.12-0.032-0.176-0.04c-0.016,0-0.024-0.008-0.04-0.008c-0.048-0.008-0.096-0.024-0.144-0.032
	c-0.008,0-0.024-0.008-0.032-0.008c-0.032-0.008-0.056-0.016-0.088-0.024c-0.008,0-0.016,0-0.024-0.008
	c-0.048-0.008-0.112-0.024-0.16-0.04c-0.008,0-0.016,0-0.016,0c-0.104-0.024-0.184-0.048-0.28-0.064c-0.008,0-0.008,0-0.016,0
	c-0.096-0.024-0.184-0.04-0.28-0.064h-0.008C311.676,6.04,308.068,5.264,304.412,4.568L304.412,4.568z M256.012,0v32
	c2.552,0,5.088,0.04,7.616,0.128l1.064-31.984c-0.36-0.016-0.72-0.024-1.08-0.032h-0.008c-0.04,0-0.08,0-0.128,0
	c-0.008,0,0,0-0.008,0c-0.088,0-0.176-0.008-0.264-0.008h-0.016c-0.04,0-0.072,0-0.112,0c-0.008,0-0.016,0-0.024,0
	c-0.04,0-0.08,0-0.12,0c-0.008,0,0,0-0.008,0c-0.04,0-0.088,0-0.128,0h-0.024c-0.032,0-0.072,0-0.104,0c-0.016,0-0.016,0-0.032,0
	c-0.032,0-0.064,0-0.104,0c-0.008,0-0.016,0-0.024,0c-0.04,0-0.08,0-0.12,0c-0.016,0-0.016,0-0.032,0c-0.032,0-0.064,0-0.088,0
	c-0.016,0-0.024,0-0.04,0c-0.032,0-0.056,0-0.088,0c-0.016,0-0.016,0-0.032,0c-0.04,0-0.08,0-0.12,0c-0.016,0-0.024,0-0.04,0
	c-0.024,0-0.056,0-0.08,0c-0.016,0-0.032,0-0.048,0c-0.024,0-0.056,0-0.08,0c-0.016,0-0.024,0-0.048,0c-0.04,0-0.072,0-0.112,0
	c-0.016,0-0.024,0-0.04,0c-0.024,0-0.056,0-0.08,0c-0.016,0-0.04,0-0.056,0c-0.024,0-0.04,0-0.064,0s-0.032,0-0.064,0
	c-0.024,0-0.048,0-0.064,0c-0.032,0-0.056,0-0.088,0c-0.024,0-0.048,0-0.072,0s-0.032,0-0.056,0s-0.048,0-0.064,0s-0.04,0-0.056,0
	c-0.024,0-0.048,0-0.072,0s-0.048,0-0.072,0c-0.032,0-0.056,0-0.088,0c-0.024,0-0.032,0-0.056,0s-0.04,0-0.064,0
	c-0.016,0-0.04,0-0.056,0c-0.024,0-0.04,0-0.064,0s-0.048,0-0.072,0c-0.032,0-0.064,0-0.096,0c-0.016,0-0.04,0-0.056,0
	c-0.024,0-0.04,0-0.064,0c-0.016,0-0.04,0-0.056,0c-0.024,0-0.04,0-0.064,0c-0.016,0-0.04,0-0.056,0c-0.032,0-0.072,0-0.104,0
	c-0.016,0-0.04,0-0.056,0c-0.024,0-0.048,0-0.064,0s-0.04,0-0.056,0c-0.024,0-0.04,0-0.064,0c-0.016,0-0.04,0-0.056,0
	c-0.04,0-0.072,0-0.112,0c-0.016,0-0.032,0-0.048,0c-0.024,0-0.048,0-0.072,0c-0.016,0-0.04,0-0.056,0c-0.024,0-0.048,0-0.064,0
	s-0.04,0-0.056,0c-0.024,0-0.048,0-0.072,0c-0.032,0-0.056,0-0.088,0c-0.024,0-0.04,0-0.064,0c-0.016,0-0.048,0-0.064,0
	s-0.04,0-0.056,0c-0.024,0-0.04,0-0.064,0s-0.048,0-0.072,0s-0.048,0-0.072,0c-0.032,0-0.056,0-0.088,0c-0.016,0-0.032,0-0.048,0
	c-0.024,0-0.048,0-0.072,0c-0.016,0-0.04,0-0.056,0c-0.024,0-0.048,0-0.072,0s-0.048,0-0.072,0c-0.032,0-0.056,0-0.088,0
	c-0.016,0-0.032,0-0.056,0s-0.048,0-0.072,0c-0.016,0-0.032,0-0.056,0s-0.048,0-0.08,0c-0.016,0-0.024,0-0.048,0
	c-0.04,0-0.08,0-0.112,0c-0.016,0-0.024,0-0.04,0c-0.024,0-0.056,0-0.08,0c-0.016,0-0.032,0-0.048,0c-0.032,0-0.056,0-0.088,0
	c-0.016,0-0.024,0-0.04,0c-0.04,0-0.08,0-0.12,0c-0.016,0-0.016,0-0.032,0c-0.032,0-0.056,0-0.088,0c-0.016,0-0.032,0-0.048,0
	c-0.024,0-0.048,0-0.072,0c-0.016,0-0.032,0-0.048,0c-0.04,0-0.08,0-0.12,0c-0.008,0-0.024,0-0.032,0c-0.032,0-0.064,0-0.088,0
	c-0.016,0-0.032,0-0.048,0c-0.024,0-0.048,0-0.072,0c-0.016,0-0.032,0-0.048,0c-0.04,0-0.08,0-0.12,0c-0.008,0-0.008,0-0.016,0
	c-0.032,0-0.072,0-0.112,0c-0.008,0-0.032,0-0.04,0c-0.024,0-0.056,0-0.088,0c-0.008,0-0.032,0-0.04,0
	C256.092,0,256.052,0,256.012,0L256.012,0L256.012,0z"/>
<g>
</g>
<g>
</g>
<g>
</g>
<g>
</g>
<g>
</g>
<g>
</g>
<g>
</g>
<g>
</g>
<g>
</g>
<g>
</g>
<g>
</g>
<g>
</g>
<g>
</g>
<g>
</g>
<g>
</g>
</svg>
